<svg width="40" height="40" viewBox="0 0 40 40" fill="none" xmlns="http://www.w3.org/2000/svg">
<circle cx="20" cy="20" r="20" fill="#212121"/>
<path opacity="0.4" d="M18.6198 22.9297H13.8854C13.2862 22.9297 12.7998 23.4076 12.7998 23.9962C12.7998 24.5841 13.2862 25.0628 13.8854 25.0628H18.6198C19.219 25.0628 19.7054 24.5841 19.7054 23.9962C19.7054 23.4076 19.219 22.9297 18.6198 22.9297Z" fill="white"/>
<path opacity="0.4" d="M27.1997 16.0326C27.1997 15.4447 26.7133 14.9668 26.1149 14.9668H21.3805C20.7814 14.9668 20.2949 15.4447 20.2949 16.0326C20.2949 16.6213 20.7814 17.0991 21.3805 17.0991H26.1149C26.7133 17.0991 27.1997 16.6213 27.1997 16.0326Z" fill="white"/>
<path d="M17.7518 16.0322C17.7518 17.3762 16.6438 18.4655 15.2758 18.4655C13.9086 18.4655 12.7998 17.3762 12.7998 16.0322C12.7998 14.689 13.9086 13.5996 15.2758 13.5996C16.6438 13.5996 17.7518 14.689 17.7518 16.0322Z" fill="white"/>
<path d="M27.2001 23.9665C27.2001 25.3098 26.0921 26.3991 24.7241 26.3991C23.3568 26.3991 22.248 25.3098 22.248 23.9665C22.248 22.6225 23.3568 21.5332 24.7241 21.5332C26.0921 21.5332 27.2001 22.6225 27.2001 23.9665Z" fill="white"/>
</svg>
