<svg width="22" height="22" viewBox="0 0 22 22" fill="none" xmlns="http://www.w3.org/2000/svg">
<path d="M4.05188 13.8929H11.1137C11.5873 12.9655 12.2834 12.1699 13.1397 11.5774H4.05188C3.89836 11.5774 3.75113 11.5164 3.64258 11.4079C3.53402 11.2993 3.47304 11.1521 3.47304 10.9985C3.47304 10.845 3.53402 10.6978 3.64258 10.5892C3.75113 10.4807 3.89836 10.4197 4.05188 10.4197H13.3133C13.4668 10.4197 13.6141 10.4807 13.7226 10.5892C13.8312 10.6978 13.8922 10.845 13.8922 10.9985C13.8946 11.0413 13.8907 11.0842 13.8806 11.1259C14.57 10.7801 15.3143 10.5568 16.0802 10.466C16.314 10.4321 16.5501 10.4166 16.7864 10.4197C16.9798 10.4193 17.1731 10.4309 17.3652 10.4544V2.89435C17.3652 2.12672 17.0603 1.39053 16.5175 0.847736C15.9747 0.30494 15.2386 0 14.471 0H2.8942C2.12661 0 1.39046 0.30494 0.847691 0.847736C0.304924 1.39053 0 2.12672 0 2.89435V15.6295C0 16.3971 0.304924 17.1333 0.847691 17.6761C1.39046 18.2189 2.12661 18.5238 2.8942 18.5238H10.6622C10.569 18.1862 10.5032 17.8417 10.4654 17.4935C10.4316 17.2596 10.4161 17.0235 10.4191 16.7872C10.4171 16.1997 10.4989 15.615 10.6622 15.0506H4.05188C3.89836 15.0506 3.75113 14.9896 3.64258 14.8811C3.53402 14.7725 3.47304 14.6253 3.47304 14.4718C3.47304 14.3182 3.53402 14.171 3.64258 14.0624C3.75113 13.9539 3.89836 13.8929 4.05188 13.8929ZM4.05188 3.47322H13.3133C13.4668 3.47322 13.6141 3.53421 13.7226 3.64277C13.8312 3.75133 13.8922 3.89857 13.8922 4.05209C13.8922 4.20562 13.8312 4.35286 13.7226 4.46141C13.6141 4.56997 13.4668 4.63096 13.3133 4.63096H4.05188C3.89836 4.63096 3.75113 4.56997 3.64258 4.46141C3.53402 4.35286 3.47304 4.20562 3.47304 4.05209C3.47304 3.89857 3.53402 3.75133 3.64258 3.64277C3.75113 3.53421 3.89836 3.47322 4.05188 3.47322ZM4.05188 6.94644H13.3133C13.4668 6.94644 13.6141 7.00743 13.7226 7.11599C13.8312 7.22455 13.8922 7.37179 13.8922 7.52531C13.8922 7.67884 13.8312 7.82608 13.7226 7.93464C13.6141 8.0432 13.4668 8.10418 13.3133 8.10418H4.05188C3.89836 8.10418 3.75113 8.0432 3.64258 7.93464C3.53402 7.82608 3.47304 7.67884 3.47304 7.52531C3.47304 7.37179 3.53402 7.22455 3.64258 7.11599C3.75113 7.00743 3.89836 6.94644 4.05188 6.94644ZM17.3652 11.6121C16.9807 11.5658 16.592 11.5658 16.2075 11.6121C14.9344 11.7545 13.7584 12.3609 12.9042 13.3156C12.05 14.2702 11.5774 15.5062 11.5768 16.7872C11.5765 16.9807 11.5881 17.174 11.6115 17.3661C11.6522 17.7615 11.7416 18.1504 11.8778 18.5238C12.1875 19.4016 12.7268 20.1804 13.4394 20.7791C14.1521 21.3779 15.0121 21.7747 15.9301 21.9285C16.8481 22.0822 17.7905 21.9871 18.6593 21.6532C19.5281 21.3193 20.2916 20.7587 20.8704 20.0297C21.4492 19.3007 21.8221 18.43 21.9503 17.508C22.0786 16.5861 21.9575 15.6466 21.5997 14.7873C21.2418 13.928 20.6603 13.1803 19.9157 12.6219C19.171 12.0635 18.2903 11.7148 17.3652 11.6121ZM17.3652 16.7872C17.3652 16.9408 17.3042 17.088 17.1957 17.1966C17.0871 17.3051 16.9399 17.3661 16.7864 17.3661H15.1077C14.9542 17.3661 14.807 17.3051 14.6984 17.1966C14.5899 17.088 14.5289 16.9408 14.5289 16.7872C14.5289 16.6337 14.5899 16.4865 14.6984 16.3779C14.807 16.2694 14.9542 16.2084 15.1077 16.2084H16.2075V14.4718C16.2075 14.3182 16.2685 14.171 16.377 14.0624C16.4856 13.9539 16.6328 13.8929 16.7864 13.8929C16.9399 13.8929 17.0871 13.9539 17.1957 14.0624C17.3042 14.171 17.3652 14.3182 17.3652 14.4718V16.7872Z" fill="white"/>
</svg>
