<svg width="19" height="22" viewBox="0 0 19 22" fill="none" xmlns="http://www.w3.org/2000/svg">
<path d="M17.8962 10.6097C17.0926 9.67138 16.7275 8.85827 16.7275 7.47676V7.00703C16.7275 5.20681 16.3132 4.04691 15.4124 2.887C14.024 1.08567 11.6867 0 9.39847 0H9.30124C7.06123 0 4.79713 1.03582 3.38465 2.76404C2.43459 3.9472 1.97216 5.15696 1.97216 7.00703V7.47676C1.97216 8.85827 1.63105 9.67138 0.803537 10.6097C0.194586 11.301 0 12.1895 0 13.1511C0 14.1138 0.315916 15.0255 0.950056 15.7667C1.77757 16.6552 2.94631 17.2223 4.14012 17.321C5.86841 17.5181 7.59682 17.5924 9.35041 17.5924C11.1029 17.5924 12.8313 17.4683 14.5607 17.321C15.7534 17.2223 16.9221 16.6552 17.7497 15.7667C18.3827 15.0255 18.6997 14.1138 18.6997 13.1511C18.6997 12.1895 18.5051 11.301 17.8962 10.6097Z" fill="white"/>
<path d="M11.5599 18.9514C11.0099 18.8339 7.65929 18.8339 7.1093 18.9514C6.63928 19.06 6.13086 19.3125 6.13086 19.8664C6.15825 20.3948 6.46768 20.8613 6.89612 21.1571L6.89513 21.1582C7.4493 21.5901 8.09983 21.8649 8.78094 21.9636C9.14383 22.0134 9.51331 22.0112 9.88939 21.9636C10.5694 21.8649 11.2199 21.5901 11.7742 21.1582L11.7731 21.1571C12.2017 20.8613 12.511 20.3948 12.5384 19.8664C12.5384 19.3125 12.03 19.06 11.5599 18.9514Z" fill="white"/>
</svg>
