<svg width="22" height="22" viewBox="0 0 22 22" fill="none" xmlns="http://www.w3.org/2000/svg">
<path id="Vector" d="M7.68264 20.6503V17.2875C7.68264 16.4284 8.42023 15.7321 9.33033 15.7321H12.6593C13.0958 15.7321 13.5149 15.896 13.8241 16.1875C14.1333 16.479 14.3069 16.875 14.3069 17.2875V20.6503C14.3046 21.0078 14.4528 21.351 14.7192 21.604C14.9866 21.857 15.3491 22 15.7277 22H17.9983C19.059 22.0022 20.0767 21.6073 20.8271 20.9011C21.5785 20.1949 22 19.2356 22 18.2357V8.65346C22 7.84494 21.6202 7.07932 20.9637 6.56121L13.2394 0.743206C11.8962 -0.276512 9.97061 -0.243512 8.66683 0.821307L1.1197 6.56121C0.431907 7.06392 0.0208421 7.83284 0 8.65346V18.2258C0 20.3104 1.79126 22 4.00168 22H6.22022C7.00643 22 7.64558 21.4016 7.65137 20.6602L7.68264 20.6503Z" fill="white"/>
</svg>
