<svg width="17" height="18" viewBox="0 0 17 18" fill="none" xmlns="http://www.w3.org/2000/svg">
<path d="M5.93659 16.8957V14.1443C5.93659 13.4414 6.50654 12.8717 7.2098 12.8717H9.78217C10.1195 12.8717 10.4434 13.0058 10.6823 13.2443C10.9212 13.4828 11.0554 13.8068 11.0554 14.1443V16.8957C11.0536 17.1882 11.1681 17.469 11.3739 17.676C11.5806 17.883 11.8606 18 12.1532 18H13.9078C14.7274 18.0018 15.5138 17.6787 16.0936 17.1009C16.6743 16.5231 17 15.7383 17 14.9201V7.0801C17 6.41859 16.7065 5.79217 16.1992 5.36826L10.2304 0.608078C9.19252 -0.226237 7.70457 -0.199237 6.69709 0.671978L0.86522 5.36826C0.333746 5.77957 0.0161053 6.40869 0 7.0801V14.912C0 16.6176 1.38415 18 3.0922 18H4.80653C5.41406 18 5.90795 17.5104 5.91242 16.9038L5.93659 16.8957Z" fill="#212121"/>
</svg>
