<svg width="20" height="20" viewBox="0 0 20 20" fill="none" xmlns="http://www.w3.org/2000/svg">
<circle cx="10" cy="10" r="10" fill="white"/>
<path d="M9.89946 3.90405C9.62044 3.90522 9.36444 4.06468 9.18298 4.32623C9.00176 4.58744 8.90388 4.93566 8.90538 5.29377L8.93228 11.7215C8.93377 12.0796 9.03456 12.427 9.21797 12.6867C9.40161 12.9467 9.65893 13.104 9.93795 13.1028C10.217 13.1017 10.473 12.9422 10.6544 12.6807C10.8357 12.4194 10.9335 12.0712 10.932 11.7131L10.9051 5.28541C10.9036 4.9273 10.8029 4.57991 10.6194 4.32022C10.4358 4.0602 10.1785 3.90288 9.89946 3.90405Z" fill="#212121" stroke="#212121" stroke-width="0.2"/>
<circle cx="9.90365" cy="15.7028" r="0.999888" transform="rotate(-0.239747 9.90365 15.7028)" fill="#212121" stroke="#212121" stroke-width="0.2"/>
</svg>
