<svg width="36" height="36" viewBox="0 0 36 36" fill="none" xmlns="http://www.w3.org/2000/svg">
<path d="M20.949 3.375H6.75V32.625H29.25V11.676L20.949 3.375Z" fill="#231F20"/>
<path d="M27.5625 30.9375H8.4375V5.0625H20.25L27.5625 12.375V30.9375Z" fill="white"/>
<path d="M20.25 12.375V5.0625L27.5625 12.375H20.25Z" fill="#6D6E71"/>
<path d="M20.25 12.375L27.5625 19.6875V12.375H20.25Z" fill="#E6E7E8"/>
<path d="M3.375 12.375H8.4375V29.25H3.375V12.375Z" fill="#231F20"/>
<path d="M8.4375 12.375H18.5625V29.25H8.4375V12.375Z" fill="url(#paint0_linear_869_739)"/>
<path d="M5.0625 14.0625H18.5625V27.5625H5.0625V14.0625Z" fill="#2FA860"/>
<path d="M18.5625 17.4375H20.25V18.5625H18.5625V17.4375ZM18.5625 20.25H20.25V21.375H18.5625V20.25ZM18.5625 23.0625H20.25V24.1875H18.5625V23.0625ZM18.5625 25.875H20.25V27H18.5625V25.875ZM18.5625 14.625H20.25V15.75H18.5625V14.625ZM21.375 17.4375H23.0625V18.5625H21.375V17.4375ZM21.375 20.25H23.0625V21.375H21.375V20.25ZM21.375 23.0625H23.0625V24.1875H21.375V23.0625ZM21.375 25.875H23.0625V27H21.375V25.875ZM21.375 14.625H23.0625V15.75H21.375V14.625Z" fill="#E6E7E8"/>
<path d="M15.75 16.875H13.5L11.8125 19.2375L10.125 16.875H7.875L10.6875 20.8125L7.875 24.75H10.125L11.8125 22.3875L13.5 24.75H15.75L12.9375 20.8125L15.75 16.875Z" fill="white"/>
<path d="M22.5 14.625L23.0625 15.1875V14.625H22.5Z" fill="#D4D6D8"/>
<defs>
<linearGradient id="paint0_linear_869_739" x1="18.3457" y1="20.8125" x2="8.67284" y2="20.8125" gradientUnits="userSpaceOnUse">
<stop stop-color="white"/>
<stop offset="1" stop-color="#E6E7E8"/>
</linearGradient>
</defs>
</svg>
