<svg width="448" height="318" viewBox="0 0 448 318" fill="none" xmlns="http://www.w3.org/2000/svg">
<path d="M224 31C142.1 31 78.3 79.8 0 159C67.4 226.7 124 287 224 287C323.9 287 397.4 210.6 448 160.4C396.2 101.6 322.8 31 224 31ZM224 250.3C174.6 250.3 134.4 209.3 134.4 159C134.4 108.6 174.6 67.7 224 67.7C273.4 67.7 313.6 108.7 313.6 159C313.6 209.4 273.4 250.3 224 250.3Z" fill="black"/>
<path d="M224 127C224 119.1 226.9 111.9 231.6 106.3C229.1 105.9 226.6 105.7 224 105.7C195.2 105.7 171.7 129.6 171.7 159C171.7 188.4 195.2 212.3 224 212.3C252.8 212.3 276.3 188.4 276.3 159C276.3 156.7 276.1 154.4 275.9 152.1C270.4 156.4 263.6 159 256.1 159C238.3 159 224 144.7 224 127Z" fill="black"/>
<path d="M420 308L28 10" stroke="black" stroke-width="22"/>
</svg>
