<svg width="240" height="193" viewBox="0 0 240 193" fill="none" xmlns="http://www.w3.org/2000/svg">
<path d="M45.9199 2.69098C45.2174 1.89905 44.3646 1.25443 43.4111 0.794487C42.4576 0.334543 41.4223 0.0684232 40.3652 0.0115523C39.308 -0.0453185 38.2501 0.108189 37.2528 0.46318C36.2554 0.818171 35.3385 1.36758 34.555 2.07957C33.7716 2.79156 33.1372 3.65197 32.6887 4.61093C32.2403 5.56989 31.9866 6.60832 31.9424 7.66605C31.8982 8.72377 32.0644 9.77975 32.4313 10.7728C32.7982 11.7658 33.3586 12.6761 34.0799 13.451L53.3199 34.621C16.9999 56.911 1.3799 91.271 0.689904 92.831C0.235036 93.8541 0 94.9613 0 96.081C0 97.2007 0.235036 98.3079 0.689904 99.331C1.0399 100.121 9.5099 118.901 28.3399 137.731C53.4299 162.811 85.1199 176.071 120 176.071C137.926 176.173 155.671 172.482 172.07 165.241L194.07 189.451C194.772 190.243 195.625 190.888 196.579 191.347C197.532 191.807 198.568 192.074 199.625 192.13C200.682 192.187 201.74 192.034 202.737 191.679C203.734 191.324 204.651 190.774 205.435 190.062C206.218 189.35 206.853 188.49 207.301 187.531C207.75 186.572 208.003 185.534 208.047 184.476C208.092 183.418 207.925 182.362 207.559 181.369C207.192 180.376 206.631 179.466 205.91 178.691L45.9199 2.69098ZM134.92 124.381C128.645 127.682 121.451 128.806 114.468 127.575C107.485 126.345 101.109 122.83 96.3401 117.583C91.5713 112.336 88.6803 105.653 88.1209 98.5851C87.5616 91.5168 89.3657 84.4629 93.2499 78.531L134.92 124.381ZM239.31 99.331C238.89 100.271 228.76 122.701 205.95 143.131C204.378 144.542 202.312 145.273 200.202 145.167C198.093 145.06 196.111 144.123 194.69 142.561L93.3999 31.141C92.4309 30.0777 91.7666 28.7728 91.4769 27.3637C91.1871 25.9546 91.2827 24.4934 91.7536 23.134C92.2245 21.7747 93.0532 20.5675 94.1524 19.6395C95.2517 18.7115 96.5808 18.0971 97.9999 17.861C105.272 16.6603 112.63 16.0616 120 16.071C154.88 16.071 186.57 29.331 211.66 54.421C230.49 73.251 238.96 92.041 239.31 92.831C239.765 93.8541 240 94.9613 240 96.081C240 97.2007 239.765 98.3079 239.31 99.331Z" fill="white"/>
</svg>
