<svg width="26" height="28" viewBox="0 0 26 28" fill="none" xmlns="http://www.w3.org/2000/svg">
<path d="M9.19034 25.7098V21.6207C9.19032 20.5844 10.0329 19.7426 11.0766 19.7361H14.9088C15.9572 19.7361 16.8071 20.5798 16.8071 21.6207V25.698C16.807 26.5967 17.5374 27.3271 18.4426 27.3337H21.0571C22.2782 27.3368 23.4504 26.8574 24.3149 26.0013C25.1795 25.1451 25.6654 23.9827 25.6654 22.7704V11.1548C25.6654 10.1755 25.2281 9.24661 24.4715 8.61833L15.5893 1.56602C14.0367 0.332489 11.8192 0.372336 10.3126 1.66084L1.62138 8.61833C0.829019 9.22809 0.355434 10.1597 0.332031 11.1548V22.7585C0.332031 25.2853 2.39521 27.3337 4.94026 27.3337H7.49508C7.93093 27.3368 8.35001 27.1671 8.65933 26.8622C8.96864 26.5574 9.1426 26.1425 9.14259 25.7098H9.19034Z" fill="#200E32"/>
</svg>
