<svg width="512" height="512" viewBox="0 0 512 512" fill="none" xmlns="http://www.w3.org/2000/svg">
<path d="M230.878 426.705L230.878 426.706C232.829 433.003 231.805 439.058 227.892 444.367C223.979 449.674 218.498 452.443 211.904 452.443H35.4355C28.842 452.443 23.3608 449.674 19.4485 444.367C15.5358 439.059 14.5117 433.003 16.4619 426.705C30.63 380.955 73.2816 347.733 123.67 347.733C174.06 347.733 216.711 380.954 230.878 426.705ZM495.54 426.705L495.54 426.706C497.491 433.003 496.467 439.058 492.553 444.367C488.641 449.674 483.16 452.443 476.566 452.443H300.098C293.505 452.443 288.024 449.674 284.111 444.367C280.199 439.059 279.175 433.003 281.125 426.705C295.293 380.955 337.945 347.733 388.332 347.733C438.722 347.733 481.373 380.954 495.54 426.705ZM256.001 196.773C279.355 196.773 301.027 203.9 318.982 216.1C309.729 229.6 304.309 245.945 304.309 263.541C304.309 277.187 307.569 290.083 313.35 301.483H198.654C204.435 290.083 207.695 277.188 207.695 263.541C207.695 245.945 202.275 229.6 193.022 216.1C210.977 203.9 232.649 196.773 256.001 196.773ZM335.309 263.542C335.309 234.257 359.049 210.517 388.333 210.517C417.618 210.517 441.358 234.257 441.358 263.542C441.358 292.827 417.618 316.567 388.333 316.567C359.049 316.567 335.309 292.827 335.309 263.542ZM70.6455 263.542C70.6455 234.257 94.3856 210.517 123.67 210.517C152.955 210.517 176.695 234.257 176.695 263.542C176.695 292.827 152.955 316.567 123.67 316.567C94.3856 316.567 70.6455 292.827 70.6455 263.542ZM256.003 59.5569C285.287 59.5569 309.027 83.297 309.027 112.582C309.027 141.867 285.287 165.607 256.003 165.607C226.718 165.607 202.977 141.867 202.977 112.582C202.977 83.297 226.718 59.5569 256.003 59.5569Z" stroke="white" strokeWidth="15"/>
</svg>
