<svg width="36" height="36" viewBox="0 0 36 36" fill="none" xmlns="http://www.w3.org/2000/svg">
<g clip-path="url(#clip0_869_752)">
<path d="M7.31422 31.5L4.49609 28.6875H7.31422V31.5ZM28.6892 31.5L31.5073 28.6875H28.6892V31.5Z" fill="#A3313A"/>
<path d="M28.6858 7.31273H24.1914V2.81836L28.6858 7.31273Z" fill="#B2B2B2"/>
<path d="M24.1875 2.8125H8.20687C7.96967 2.8125 7.74218 2.90673 7.57446 3.07446C7.40673 3.24218 7.3125 3.46967 7.3125 3.70688V32.3944C7.3125 32.6321 7.40654 32.8602 7.57411 33.0288C7.74168 33.1974 7.96916 33.2929 8.20687 33.2944H27.7931C27.9132 33.2937 28.032 33.269 28.1424 33.2216C28.2528 33.1743 28.3527 33.1054 28.436 33.0189C28.5194 32.9324 28.5846 32.8301 28.6277 32.718C28.6709 32.6059 28.6913 32.4863 28.6875 32.3663V7.3125H24.1875V2.8125Z" fill="#F1F1F1"/>
<path d="M5.0625 18.5625H30.9375C31.0867 18.5625 31.2298 18.6218 31.3352 18.7273C31.4407 18.8327 31.5 18.9758 31.5 19.125V28.6875H4.5V19.125C4.5 18.9758 4.55926 18.8327 4.66475 18.7273C4.77024 18.6218 4.91332 18.5625 5.0625 18.5625Z" fill="#C84D52"/>
<path d="M13.3125 24.2607V25.8751H12.1875V21.2738H13.9875C14.4415 21.2419 14.8898 21.3894 15.2362 21.6844C15.3858 21.8293 15.5019 22.0049 15.5767 22.1992C15.6515 22.3935 15.6831 22.6017 15.6694 22.8094C15.6723 23.0748 15.6064 23.3365 15.4781 23.5688C15.3464 23.7963 15.1508 23.9801 14.9156 24.0976C14.6298 24.2339 14.3153 24.2995 13.9987 24.2888L13.3125 24.2607ZM14.55 22.7813C14.55 22.3763 14.325 22.1738 13.875 22.1738H13.3125V23.3719H13.875C14.325 23.3719 14.55 23.1751 14.55 22.7813ZM20.0737 24.7501C19.8814 25.097 19.5921 25.3805 19.2412 25.5657C18.8469 25.7688 18.4078 25.8693 17.9644 25.8582H16.2263V21.2738H17.9644C18.4072 21.2621 18.846 21.3607 19.2412 21.5607C19.5931 21.7419 19.8829 22.0239 20.0737 22.3707C20.2712 22.7386 20.37 23.1514 20.3606 23.5688C20.3656 23.9804 20.267 24.3866 20.0737 24.7501ZM18.8756 24.5194C19.1084 24.2497 19.2365 23.9054 19.2365 23.5491C19.2365 23.1929 19.1084 22.8485 18.8756 22.5788C18.5965 22.3356 18.2326 22.2123 17.8631 22.2357H17.34V24.8626H17.8631C18.2303 24.8906 18.5939 24.7734 18.8756 24.5363V24.5194ZM23.9944 21.2738V22.1626H22.1044V23.1694H23.5612V24.0132H22.1044V25.8751H20.9794V21.2738H23.9944Z" fill="white"/>
<path d="M18.507 5.92345C18.5485 6.31333 18.5102 6.70757 18.3945 7.0822C17.8939 8.80908 16.2176 15.1035 14.952 15.9978C13.1464 17.2803 12.207 15.8235 13.1689 14.7885C14.1308 13.7535 19.9358 12.3753 21.7864 12.3753C24.1939 12.3753 23.8845 14.5072 22.5176 14.3778C20.9764 14.2316 17.1233 11.6047 16.8926 6.6097C16.7914 4.8322 18.3326 4.50033 18.507 5.92345Z" stroke="#C84D52" stroke-miterlimit="10"/>
</g>
<defs>
<clipPath id="clip0_869_752">
<rect width="36" height="36" fill="white"/>
</clipPath>
</defs>
</svg>
