<svg width="24" height="35" viewBox="0 0 24 35" fill="none" xmlns="http://www.w3.org/2000/svg">
<path d="M5.8 20.7L12 27L18.2 20.7C18.4 20.5 18.5 20.2 18.5 20C18.5 19.8 18.4 19.5 18.2 19.3C18 19.1 17.8 19 17.5 19H6.5C6.2 19 6 19.1 5.8 19.3C5.6 19.5 5.5 19.7 5.5 20C5.5 20.3 5.6 20.5 5.8 20.7Z" fill="#A6AABB"/>
<path d="M18.2 14.3L12 8L5.8 14.3C5.6 14.5 5.5 14.8 5.5 15C5.5 15.2 5.6 15.5 5.8 15.7C6 15.9 6.2 16 6.5 16H17.5C17.8 16 18 15.9 18.2 15.7C18.4 15.5 18.5 15.3 18.5 15C18.5 14.7 18.4 14.5 18.2 14.3Z" fill="#A6AABB"/>
</svg>
