<?xml version="1.0" standalone="no"?>
<!DOCTYPE svg PUBLIC "-//W3C//DTD SVG 20010904//EN"
 "http://www.w3.org/TR/2001/REC-SVG-20010904/DTD/svg10.dtd">
<svg version="1.0" xmlns="http://www.w3.org/2000/svg"
 width="384.000000pt" height="384.000000pt" viewBox="0 0 384.000000 384.000000"
 preserveAspectRatio="xMidYMid meet">

<g transform="translate(0.000000,384.000000) scale(0.100000,-0.100000)"
fill="#000000" stroke="none">
<path d="M1730 3560 c-701 -86 -1271 -603 -1419 -1285 -30 -136 -44 -305 -37
-432 l7 -113 -44 0 c-52 0 -145 26 -169 47 -20 18 -47 14 -62 -10 -24 -39 49
-68 210 -82 l71 -7 17 -81 c95 -459 386 -862 795 -1101 236 -139 605 -235 852
-223 631 31 1166 372 1441 920 78 156 158 423 158 531 0 53 9 58 91 51 41 -3
93 -13 116 -21 59 -22 101 2 75 43 -14 22 -78 42 -171 54 l-91 13 0 45 c0 91
-32 317 -60 426 -71 276 -206 517 -404 723 -245 254 -537 413 -885 483 -113
22 -379 32 -491 19z m447 -26 c340 -53 636 -206 889 -458 228 -228 360 -462
439 -775 23 -92 45 -262 45 -357 l0 -81 -82 -7 c-137 -12 -320 -53 -517 -117
-227 -74 -293 -82 -401 -50 -94 29 -162 93 -204 194 -20 45 -35 67 -46 67 -9
0 -72 -36 -141 -80 -68 -44 -130 -80 -137 -80 -43 0 -15 65 88 201 137 180
241 385 300 593 42 149 43 160 25 195 -35 68 -36 66 -256 -409 -89 -192 -178
-377 -198 -411 -34 -59 -41 -64 -147 -120 -189 -100 -365 -151 -534 -153 -80
0 -102 3 -137 21 -57 31 -71 74 -48 145 20 62 80 153 130 196 33 30 41 32 110
32 68 0 76 2 91 25 26 40 13 55 -50 55 -72 0 -151 -41 -294 -152 -148 -116
-191 -144 -286 -189 -116 -54 -226 -79 -383 -86 l-132 -6 -7 27 c-3 15 -4 111
-1 214 8 277 50 452 168 687 79 160 171 286 304 420 374 374 886 541 1412 459z
m149 -1025 c-52 -132 -203 -445 -211 -437 -5 4 125 306 204 472 28 60 53 107
56 104 2 -2 -19 -65 -49 -139z m-1247 -630 c-16 -40 -20 -70 -17 -116 5 -79
28 -112 94 -135 131 -46 354 -2 616 119 53 25 104 43 113 40 21 -9 19 -40 -5
-79 -24 -39 -26 -76 -5 -84 8 -4 55 23 112 63 144 101 272 183 286 183 7 0 28
-28 47 -62 92 -160 259 -227 456 -183 43 10 134 35 201 56 143 46 278 75 383
84 41 3 99 8 129 11 l54 6 -7 -64 c-19 -171 -73 -346 -161 -523 -84 -168 -174
-294 -305 -425 -132 -131 -258 -222 -425 -305 -303 -150 -606 -202 -932 -160
-371 48 -679 201 -949 470 -236 235 -385 515 -449 842 l-12 61 106 6 c272 16
428 68 615 205 39 28 71 49 73 48 1 -2 -7 -28 -18 -58z"/>
<path d="M1888 3492 c-29 -3 -39 -22 -13 -22 11 0 15 -11 15 -40 0 -22 5 -40
10 -40 6 0 10 18 10 39 0 22 5 41 13 44 21 8 -6 23 -35 19z"/>
<path d="M1694 3446 l5 -39 -34 33 c-19 19 -36 30 -36 24 -2 -14 1 -47 7 -71
7 -35 21 -27 16 10 l-5 32 22 -27 c33 -41 51 -37 44 10 -3 20 -10 44 -15 52
-6 10 -8 2 -4 -24z"/>
<path d="M2250 3420 c-21 -40 19 -91 58 -74 14 6 13 8 -7 13 -37 10 -50 37
-28 58 15 15 20 16 38 5 18 -11 20 -11 17 0 -3 7 -19 14 -36 16 -23 2 -33 -2
-42 -18z"/>
<path d="M1453 3393 c3 -16 7 -35 9 -43 2 -8 -4 -15 -14 -17 -11 -3 -20 7 -28
31 -12 39 -36 51 -25 14 18 -61 50 -83 75 -53 14 17 6 80 -12 91 -8 5 -9 -2
-5 -23z"/>
<path d="M2475 3338 c-16 -40 -16 -43 1 -55 10 -7 21 -13 26 -13 14 0 9 18 -7
24 -14 5 -14 9 0 42 18 43 18 44 6 44 -5 0 -16 -19 -26 -42z"/>
<path d="M1226 3306 c6 -27 -23 -46 -32 -21 -4 8 -12 15 -20 15 -11 0 -10 -8
6 -39 24 -49 46 -65 37 -29 -9 33 19 47 38 21 24 -32 25 -7 3 35 -25 46 -42
55 -32 18z"/>
<path d="M2667 3262 c-23 -25 -21 -58 4 -76 28 -19 61 -7 74 29 8 23 6 30 -14
46 -29 24 -43 24 -64 1z m61 -28 c4 -25 -22 -49 -43 -40 -15 5 -21 47 -8 60
14 14 48 1 51 -20z"/>
<path d="M989 3182 l-22 -19 28 -36 c26 -35 45 -47 45 -29 0 4 -6 14 -12 21
-11 11 -7 12 22 7 33 -7 34 -6 15 9 -11 9 -19 21 -17 27 3 11 -16 38 -28 38
-4 0 -18 -8 -31 -18z m33 -24 c-6 -6 -16 -7 -22 -3 -9 6 -9 9 1 16 17 10 34 0
21 -13z"/>
<path d="M2893 3138 c2 -7 -7 -28 -20 -46 -32 -43 -20 -57 13 -15 15 20 30 30
39 26 25 -9 17 14 -11 32 -19 12 -25 13 -21 3z"/>
<path d="M806 3024 c-9 -8 -16 -24 -16 -34 0 -40 60 -66 88 -38 28 28 2 88
-38 88 -10 0 -26 -7 -34 -16z m59 -34 c0 -18 -6 -26 -23 -28 -24 -4 -38 18
-28 44 3 9 15 14 28 12 17 -2 23 -10 23 -28z"/>
<path d="M3020 2965 c-33 -34 -36 -61 -5 -35 24 20 44 -3 27 -30 -18 -29 3
-25 40 9 32 28 34 57 3 31 -12 -10 -18 -10 -30 0 -14 12 -14 15 0 30 31 34 -2
29 -35 -5z"/>
<path d="M640 2833 c0 -5 19 -21 41 -37 39 -27 41 -27 54 -10 23 31 14 49 -12
23 -9 -9 -19 -6 -39 10 -27 22 -44 27 -44 14z"/>
<path d="M3177 2774 c-43 -29 -51 -55 -9 -29 56 37 63 43 54 49 -5 3 -25 -6
-45 -20z"/>
<path d="M536 2654 c-21 -21 -20 -47 2 -67 22 -20 53 -22 70 -5 15 15 15 61 0
76 -17 17 -54 15 -72 -4z m64 -19 c10 -12 10 -18 0 -30 -27 -32 -71 -8 -56 30
3 8 14 15 24 15 11 0 25 -7 32 -15z"/>
<path d="M3263 2613 c-32 -16 -47 -41 -18 -29 8 3 23 9 32 13 14 6 13 1 -5
-29 -12 -19 -19 -38 -16 -41 8 -7 94 34 94 45 0 12 -8 10 -35 -8 -28 -18 -33
-8 -10 22 32 43 14 55 -42 27z"/>
<path d="M435 2430 c-21 -23 -15 -43 19 -66 24 -15 28 -15 51 0 24 16 35 56
15 56 -5 0 -10 -9 -10 -19 0 -24 -28 -35 -47 -20 -9 8 -12 22 -8 41 8 33 4 35
-20 8z"/>
<path d="M3354 2392 c-6 -4 -15 -16 -21 -26 -14 -25 4 -69 25 -61 7 3 18 5 23
5 4 0 6 7 3 15 -5 12 -10 13 -20 4 -21 -18 -31 19 -10 39 20 20 48 7 56 -28 5
-20 7 -21 19 -7 11 14 9 20 -13 42 -26 26 -43 30 -62 17z"/>
<path d="M572 1285 c-7 -14 -23 -30 -37 -37 -31 -14 -33 -33 -2 -23 12 5 39 8
60 9 33 1 53 14 27 17 -5 1 -14 3 -20 4 -5 1 -13 3 -17 4 -4 0 -2 6 5 13 14
14 16 38 4 38 -5 0 -14 -11 -20 -25z"/>
<path d="M3182 1188 c-30 -30 2 -65 42 -47 31 14 44 6 26 -16 -22 -26 -5 -26
20 0 l23 24 -25 12 c-18 8 -31 8 -45 0 -24 -12 -37 -3 -22 15 13 16 -4 27 -19
12z"/>
<path d="M646 1084 c-40 -39 -6 -89 57 -85 26 2 43 45 29 76 -14 29 -61 35
-86 9z m74 -34 c0 -25 -30 -41 -53 -29 -39 22 -4 79 35 58 10 -5 18 -18 18
-29z"/>
<path d="M3060 1015 c-22 -27 -4 -48 35 -42 39 6 55 -6 28 -22 -10 -5 -14 -13
-10 -17 4 -4 17 2 29 14 30 30 10 55 -38 46 -22 -4 -34 -2 -34 5 0 6 5 11 10
11 6 0 10 5 10 10 0 15 -16 12 -30 -5z"/>
<path d="M816 899 c-14 -17 -26 -37 -26 -44 0 -15 27 -45 40 -45 17 0 80 62
74 72 -4 5 -21 -5 -39 -22 -32 -31 -55 -33 -55 -6 0 7 11 23 25 36 14 13 25
27 25 32 0 17 -19 7 -44 -23z"/>
<path d="M2922 868 l-21 -21 31 -38 c17 -22 34 -39 37 -39 3 1 17 10 30 21 28
23 22 36 -8 18 -25 -16 -39 -5 -21 16 17 20 5 32 -15 15 -22 -19 -31 -4 -11
19 24 26 4 35 -22 9z"/>
<path d="M986 739 c-31 -44 -29 -66 3 -28 l20 24 1 -42 c0 -24 4 -43 8 -43 14
0 73 78 63 84 -5 4 -19 -6 -30 -21 l-20 -28 -1 48 c0 26 -3 47 -7 47 -5 0 -21
-19 -37 -41z"/>
<path d="M2750 725 c0 -10 53 -85 59 -85 9 1 41 26 41 34 0 3 -10 4 -23 1 -17
-5 -26 1 -40 25 -16 26 -37 41 -37 25z"/>
<path d="M2587 634 c-27 -14 -30 -38 -4 -28 8 3 20 -10 30 -31 9 -19 21 -35
27 -35 15 0 12 11 -11 50 -14 22 -17 36 -10 38 12 4 15 22 4 22 -5 -1 -21 -8
-36 -16z"/>
<path d="M1197 622 c-36 -39 -13 -97 35 -90 26 3 32 38 9 46 -10 3 -12 0 -8
-12 5 -13 2 -17 -11 -14 -23 4 -27 41 -7 58 14 11 20 11 37 1 26 -16 39 -3 14
15 -27 19 -50 18 -69 -4z"/>
<path d="M2394 545 c-9 -23 2 -43 27 -47 29 -4 37 -28 10 -28 -12 0 -21 -4
-21 -10 0 -14 33 -13 48 2 20 20 13 39 -18 49 -31 11 -41 29 -15 29 8 0 15 5
15 10 0 16 -40 12 -46 -5z"/>
<path d="M1593 503 c-7 -2 -13 -15 -13 -27 0 -12 -5 -27 -12 -34 -15 -15 4
-38 37 -45 21 -3 25 0 25 19 0 13 5 24 10 24 7 0 7 6 1 18 -5 9 -12 25 -15 35
-5 17 -11 19 -33 10z m27 -22 c0 -6 -4 -13 -10 -16 -5 -3 -10 1 -10 9 0 9 5
16 10 16 6 0 10 -4 10 -9z m-10 -57 c0 -16 -16 -19 -25 -4 -8 13 4 32 16 25 5
-4 9 -13 9 -21z"/>
<path d="M2202 503 c-16 -3 -22 -9 -18 -20 3 -8 9 -33 12 -54 5 -29 11 -39 21
-35 8 4 23 6 34 6 10 0 19 5 19 11 0 7 -10 9 -25 7 -29 -6 -33 9 -7 28 16 12
15 13 -5 14 -28 0 -30 20 -3 27 11 3 20 9 20 14 0 9 -8 10 -48 2z"/>
<path d="M1980 474 c-11 -4 -14 -16 -12 -52 4 -53 22 -83 22 -36 l1 29 18 -22
c11 -13 21 -23 23 -23 2 0 4 19 5 43 1 58 -12 73 -57 61z m38 -32 c2 -7 -3
-12 -12 -12 -9 0 -16 7 -16 16 0 17 22 14 28 -4z"/>
</g>
</svg>
