<svg width="23" height="23" viewBox="0 0 23 23" fill="none" xmlns="http://www.w3.org/2000/svg">
<g id="Component 14" clip-path="url(#clip0_530_1995)">
<path id="Vector" d="M12.0973 13.9598C11.7856 13.9598 11.5245 13.8542 11.3141 13.643C11.1029 13.4325 10.9973 13.1714 10.9973 12.8598C10.9973 12.5481 11.1029 12.2867 11.3141 12.0755C11.5245 11.865 11.7856 11.7598 12.0973 11.7598C12.4089 11.7598 12.6704 11.865 12.8816 12.0755C13.092 12.2867 13.1973 12.5481 13.1973 12.8598C13.1973 13.1714 13.092 13.4325 12.8816 13.643C12.6704 13.8542 12.4089 13.9598 12.0973 13.9598ZM7.69727 13.9598C7.3856 13.9598 7.12417 13.8542 6.91297 13.643C6.7025 13.4325 6.59727 13.1714 6.59727 12.8598C6.59727 12.5481 6.7025 12.2867 6.91297 12.0755C7.12417 11.865 7.3856 11.7598 7.69727 11.7598C8.00893 11.7598 8.27037 11.865 8.48157 12.0755C8.69203 12.2867 8.79727 12.5481 8.79727 12.8598C8.79727 13.1714 8.69203 13.4325 8.48157 13.643C8.27037 13.8542 8.00893 13.9598 7.69727 13.9598ZM16.4973 13.9598C16.1856 13.9598 15.9245 13.8542 15.7141 13.643C15.5029 13.4325 15.3973 13.1714 15.3973 12.8598C15.3973 12.5481 15.5029 12.2867 15.7141 12.0755C15.9245 11.865 16.1856 11.7598 16.4973 11.7598C16.8089 11.7598 17.07 11.865 17.2805 12.0755C17.4917 12.2867 17.5973 12.5481 17.5973 12.8598C17.5973 13.1714 17.4917 13.4325 17.2805 13.643C17.07 13.8542 16.8089 13.9598 16.4973 13.9598ZM12.0973 18.3598C11.7856 18.3598 11.5245 18.2542 11.3141 18.043C11.1029 17.8325 10.9973 17.5714 10.9973 17.2598C10.9973 16.9481 11.1029 16.687 11.3141 16.4766C11.5245 16.2654 11.7856 16.1598 12.0973 16.1598C12.4089 16.1598 12.6704 16.2654 12.8816 16.4766C13.092 16.687 13.1973 16.9481 13.1973 17.2598C13.1973 17.5714 13.092 17.8325 12.8816 18.043C12.6704 18.2542 12.4089 18.3598 12.0973 18.3598ZM7.69727 18.3598C7.3856 18.3598 7.12417 18.2542 6.91297 18.043C6.7025 17.8325 6.59727 17.5714 6.59727 17.2598C6.59727 16.9481 6.7025 16.687 6.91297 16.4766C7.12417 16.2654 7.3856 16.1598 7.69727 16.1598C8.00893 16.1598 8.27037 16.2654 8.48157 16.4766C8.69203 16.687 8.79727 16.9481 8.79727 17.2598C8.79727 17.5714 8.69203 17.8325 8.48157 18.043C8.27037 18.2542 8.00893 18.3598 7.69727 18.3598ZM16.4973 18.3598C16.1856 18.3598 15.9245 18.2542 15.7141 18.043C15.5029 17.8325 15.3973 17.5714 15.3973 17.2598C15.3973 16.9481 15.5029 16.687 15.7141 16.4766C15.9245 16.2654 16.1856 16.1598 16.4973 16.1598C16.8089 16.1598 17.07 16.2654 17.2805 16.4766C17.4917 16.687 17.5973 16.9481 17.5973 17.2598C17.5973 17.5714 17.4917 17.8325 17.2805 18.043C17.07 18.2542 16.8089 18.3598 16.4973 18.3598ZM4.39727 22.7598C3.79227 22.7598 3.27417 22.5445 2.84297 22.1141C2.4125 21.6829 2.19727 21.1648 2.19727 20.5598V5.15977C2.19727 4.55477 2.4125 4.03703 2.84297 3.60657C3.27417 3.17537 3.79227 2.95977 4.39727 2.95977H5.49727V0.759766H7.69727V2.95977H16.4973V0.759766H18.6973V2.95977H19.7973C20.4023 2.95977 20.9204 3.17537 21.3516 3.60657C21.782 4.03703 21.9973 4.55477 21.9973 5.15977V20.5598C21.9973 21.1648 21.782 21.6829 21.3516 22.1141C20.9204 22.5445 20.4023 22.7598 19.7973 22.7598H4.39727ZM4.39727 20.5598H19.7973V9.55977H4.39727V20.5598Z" fill="#212121"/>
</g>
<defs>
<clipPath id="clip0_530_1995">
<rect width="22" height="22" fill="white" transform="translate(0.822266 0.757812)"/>
</clipPath>
</defs>
</svg>
