<svg width="19" height="19" viewBox="0 0 19 19" fill="none" xmlns="http://www.w3.org/2000/svg">
<g id="edit (5) 1" clip-path="url(#clip0_304_1302)">
<path id="Path 2689" d="M6.03789 17.1004C5.47099 17.1004 4.92731 16.8752 4.52645 16.4743C4.12559 16.0735 3.90039 15.5298 3.90039 14.9629V4.03789C3.90039 3.47099 4.12559 2.92731 4.52645 2.52645C4.92731 2.12559 5.47099 1.90039 6.03789 1.90039H12.9254C13.1144 1.90039 13.2956 1.97546 13.4292 2.10908C13.5628 2.2427 13.6379 2.42392 13.6379 2.61289C13.6379 2.80186 13.5628 2.98309 13.4292 3.11671C13.2956 3.25032 13.1144 3.32539 12.9254 3.32539H6.03789C5.94432 3.32539 5.85167 3.34382 5.76523 3.37963C5.67878 3.41543 5.60024 3.46792 5.53408 3.53408C5.46792 3.60024 5.41543 3.67878 5.37963 3.76523C5.34382 3.85167 5.32539 3.94432 5.32539 4.03789V14.9629C5.32539 15.0565 5.34382 15.1491 5.37963 15.2356C5.41543 15.322 5.46792 15.4005 5.53408 15.4667C5.60024 15.5329 5.67878 15.5853 5.76523 15.6212C5.85167 15.657 5.94432 15.6754 6.03789 15.6754H16.9629C17.1519 15.6754 17.3331 15.6003 17.4667 15.4667C17.6003 15.3331 17.6754 15.1519 17.6754 14.9629V8.31289C17.6754 8.12392 17.7505 7.9427 17.8841 7.80908C18.0177 7.67546 18.1989 7.60039 18.3879 7.60039C18.5769 7.60039 18.7581 7.67546 18.8917 7.80908C19.0253 7.9427 19.1004 8.12392 19.1004 8.31289V14.9629C19.1004 15.5298 18.8752 16.0735 18.4743 16.4743C18.0735 16.8752 17.5298 17.1004 16.9629 17.1004H6.03789ZM7.59827 12.9837L8.10018 10.0443C8.09957 10.0422 8.09957 10.04 8.10018 10.0379L11.4568 6.68127L15.8245 2.3176C15.9566 2.18514 16.1135 2.08008 16.2863 2.00848C16.4591 1.93688 16.6444 1.90015 16.8315 1.90039C17.0199 1.90024 17.2065 1.93722 17.3807 2.00921C17.5548 2.08121 17.7131 2.1868 17.8464 2.31998L18.2636 2.73718L18.6832 3.15677C18.9503 3.42399 19.1003 3.78634 19.1003 4.16416C19.1003 4.54198 18.9503 4.90434 18.6832 5.17156L14.3163 9.53918L10.9613 12.8958C10.9592 12.8964 10.957 12.8964 10.9549 12.8958L8.01547 13.397C7.99508 13.4006 7.97443 13.4024 7.95372 13.4025C7.9015 13.4024 7.84993 13.3909 7.80257 13.3689C7.7552 13.3469 7.71318 13.3149 7.67938 13.2751C7.64559 13.2353 7.62084 13.1886 7.60683 13.1383C7.59283 13.088 7.58991 13.0353 7.59827 12.9837ZM12.4662 7.69143L9.42622 10.7314L9.25285 11.7448L10.2662 11.5714L13.3062 8.53139L17.6754 4.16535L17.2558 3.74577L16.8362 3.32618L12.4662 7.69143Z" fill="#212121"/>
</g>
<defs>
<clipPath id="clip0_304_1302">
<rect width="19" height="19" fill="white"/>
</clipPath>
</defs>
</svg>
