<svg width="18" height="18" viewBox="0 0 18 18" fill="none" xmlns="http://www.w3.org/2000/svg">
<g id="icon">
<path id="Vector" fill-rule="evenodd" clip-rule="evenodd" d="M12.4373 16.9996H5.21111C2.55676 16.9996 0.520444 16.0778 1.09885 12.3675L1.77234 7.33917C2.1289 5.48783 3.35703 4.7793 4.43462 4.7793H13.2455C14.3389 4.7793 15.4957 5.54116 15.9078 7.33917L16.5812 12.3675C17.0725 15.6588 15.0916 16.9996 12.4373 16.9996Z" stroke="white" stroke-width="1.5" stroke-linecap="round" stroke-linejoin="round"/>
<path id="Vector_2" d="M12.5561 4.59605C12.5561 2.61003 10.8817 1.00003 8.81624 1.00003C7.82163 0.995987 6.86631 1.37306 6.16152 2.04788C5.45674 2.7227 5.06054 3.63968 5.06055 4.59605" stroke="white" stroke-width="1.5" stroke-linecap="round" stroke-linejoin="round"/>
<path id="Vector_3" d="M11.3818 8.34375H11.3438" stroke="white" stroke-width="1.5" stroke-linecap="round" stroke-linejoin="round"/>
<path id="Vector_4" d="M6.33497 8.34375H6.29688" stroke="white" stroke-width="1.5" stroke-linecap="round" stroke-linejoin="round"/>
</g>
</svg>
