<svg width="16" height="16" viewBox="0 0 16 16" fill="none" xmlns="http://www.w3.org/2000/svg">
<g id="time (5) 1">
<path id="Vector" d="M5.33704 0.668553C5.24607 0.662957 5.15492 0.676039 5.0692 0.707C4.98349 0.737962 4.90501 0.786128 4.83862 0.848564C4.77223 0.910999 4.71932 0.986365 4.68315 1.07002C4.64698 1.15368 4.62832 1.24386 4.62832 1.335C4.62832 1.42614 4.64698 1.51632 4.68315 1.59998C4.71932 1.68363 4.77223 1.759 4.83862 1.82144C4.90501 1.88387 4.98349 1.93204 5.0692 1.963C5.15492 1.99396 5.24607 2.00704 5.33704 2.00145H7.33263V3.37471C5.86832 3.54147 4.51627 4.24024 3.53335 5.33837C2.55042 6.43649 2.0051 7.85743 2.00098 9.3312C2.00497 10.9218 2.63859 12.4461 3.7633 13.5708C4.88801 14.6955 6.41229 15.3291 8.00287 15.3331C11.3087 15.3331 13.9997 12.637 13.9997 9.3312C13.9968 7.85684 13.4519 6.43499 12.4688 5.33621C11.4857 4.23744 10.133 3.53846 8.66806 3.37217V2.00145H10.6637C10.8407 2.00145 11.0106 1.93112 11.1358 1.8059C11.261 1.68068 11.3314 1.51078 11.3314 1.33369C11.3314 1.1566 11.261 0.98678 11.1358 0.861559C11.0106 0.736338 10.8407 0.666016 10.6637 0.666016L5.33704 0.668553ZM8.00287 4.66731C10.5881 4.66731 12.6668 6.74852 12.6668 9.3312C12.6685 9.94417 12.5491 10.5514 12.3155 11.1182C12.0819 11.6849 11.7387 12.1999 11.3057 12.6337C10.8726 13.0675 10.3581 13.4115 9.79177 13.646C9.22543 13.8805 8.61836 14.0008 8.00539 14.0002C7.39176 14.0015 6.7839 13.8817 6.21669 13.6475C5.64949 13.4134 5.13409 13.0695 4.70007 12.6357C4.26605 12.202 3.92195 11.6868 3.68751 11.1197C3.45306 10.5526 3.33289 9.94483 3.33389 9.3312C3.33389 6.74852 5.42019 4.66731 8.00287 4.66731ZM7.99279 5.99013C7.9051 5.99111 7.81847 6.00933 7.73783 6.0438C7.6572 6.07827 7.58414 6.12827 7.52284 6.19098C7.46154 6.25368 7.41319 6.32789 7.38055 6.40928C7.34792 6.49067 7.33163 6.57773 7.33263 6.66542V10.0014C7.33396 10.1781 7.40524 10.347 7.53087 10.4712C7.65649 10.5954 7.82621 10.6648 8.00287 10.6641H10.001C10.0919 10.6697 10.1831 10.6566 10.2688 10.6256C10.3545 10.5947 10.433 10.5465 10.4994 10.4841C10.5658 10.4216 10.6187 10.3463 10.6549 10.2626C10.691 10.179 10.7097 10.0888 10.7097 9.99765C10.7097 9.90651 10.691 9.81632 10.6549 9.73267C10.6187 9.64901 10.5658 9.57365 10.4994 9.51121C10.433 9.44878 10.3545 9.40061 10.2688 9.36965C10.1831 9.33869 10.0919 9.3256 10.001 9.3312H8.66554V6.66542C8.66655 6.57667 8.64986 6.48858 8.61644 6.40636C8.58301 6.32414 8.53354 6.24939 8.4709 6.18652C8.40826 6.12364 8.33371 6.07391 8.25162 6.04018C8.16953 6.00646 8.08154 5.98945 7.99279 5.99013Z" fill="#FF0203"/>
</g>
</svg>
