<svg width="15" height="17" viewBox="0 0 15 17" fill="none" xmlns="http://www.w3.org/2000/svg">
<path id="Vector" fill-rule="evenodd" clip-rule="evenodd" d="M14.3829 2.69815C14.7065 2.69815 14.976 2.96688 14.976 3.30883V3.62499C14.976 3.95861 14.7065 4.23567 14.3829 4.23567H0.593923C0.269452 4.23567 0 3.95861 0 3.62499V3.30883C0 2.96688 0.269452 2.69815 0.593923 2.69815H3.0198C3.51258 2.69815 3.94143 2.34788 4.05229 1.85368L4.17933 1.28626C4.37677 0.513336 5.02653 0 5.77014 0H9.20583C9.9414 0 10.5984 0.513336 10.7885 1.2455L10.9245 1.85285C11.0346 2.34788 11.4634 2.69815 11.957 2.69815H14.3829ZM13.1504 14.2555C13.4037 11.8952 13.8471 6.28752 13.8471 6.23096C13.8633 6.05956 13.8075 5.89732 13.6966 5.7667C13.5777 5.6444 13.4271 5.57201 13.2613 5.57201H1.72101C1.55433 5.57201 1.39573 5.6444 1.28568 5.7667C1.17402 5.89732 1.11899 6.05956 1.12709 6.23096C1.12857 6.24135 1.14448 6.43887 1.17108 6.76907C1.28925 8.23613 1.61838 12.3221 1.83106 14.2555C1.98156 15.6799 2.91614 16.5751 4.26987 16.6076C5.31451 16.6317 6.39068 16.64 7.49116 16.64C8.52767 16.64 9.5804 16.6317 10.6574 16.6076C12.0581 16.5834 12.9918 15.704 13.1504 14.2555Z" fill="#212121"/>
</svg>
