<svg width="25" height="24" viewBox="0 0 25 24" fill="none" xmlns="http://www.w3.org/2000/svg">
<path d="M7.125 19.125C5.78426 19.125 4.6875 20.2218 4.6875 21.5626C4.6875 22.9033 5.78426 24.0001 7.125 24.0001C8.46574 24.0001 9.56256 22.9033 9.56256 21.5626C9.5625 20.2217 8.46568 19.125 7.125 19.125ZM0 0V2.4375H2.4375L6.82518 11.3251L4.99072 14.3107C4.80803 14.6154 4.68604 15.0421 4.68604 15.4688C4.68604 17.1006 5.80078 17.9063 7.3125 17.9063H21.5625V15.5626H7.61092C7.42822 15.5626 7.30623 15.4406 7.30623 15.2579C7.30623 15.1972 7.43555 14.9532 7.43555 14.9532L8.65324 13.0313H17.7326C18.6467 13.0313 19.4393 12.544 19.8654 11.7519L24.253 4.20498C24.3255 4.06078 24.375 3.839 24.375 3.59566C24.375 2.925 23.8263 2.43756 23.1562 2.43756H5.11898L3.96094 0H0ZM19.1249 19.125C17.7842 19.125 16.6874 20.2218 16.6874 21.5626C16.6874 22.9033 17.7842 24.0001 19.1249 24.0001C20.4657 24.0001 21.5625 22.9032 21.5625 21.5625C21.5625 20.2217 20.4657 19.125 19.1249 19.125Z" fill="white"/>
</svg>
