<?xml version="1.0" standalone="no"?>
<!DOCTYPE svg PUBLIC "-//W3C//DTD SVG 20010904//EN"
 "http://www.w3.org/TR/2001/REC-SVG-20010904/DTD/svg10.dtd">
<svg version="1.0" xmlns="http://www.w3.org/2000/svg"
 width="225.000000pt" height="224.000000pt" viewBox="0 0 225.000000 224.000000"
 preserveAspectRatio="xMidYMid meet">

<g transform="translate(0.000000,224.000000) scale(0.100000,-0.100000)"
fill="#000000" stroke="none">
<path d="M985 2039 c-154 -20 -415 -137 -415 -185 0 -13 9 -28 20 -34 13 -7
20 -7 20 -1 0 6 10 15 21 22 17 9 20 8 13 -3 -10 -17 24 8 46 34 13 15 37 24
73 27 5 1 6 5 2 10 -3 6 4 8 15 6 11 -2 20 0 20 5 0 5 7 6 17 3 12 -5 14 -3 8
7 -6 10 -4 12 8 7 10 -4 17 -2 17 4 0 6 9 9 20 6 12 -3 18 -1 14 5 -5 7 2 9
20 6 14 -3 26 -2 26 3 0 4 11 6 25 3 14 -2 25 -1 25 4 0 5 23 8 50 8 28 -1 50
1 50 5 0 8 125 0 169 -11 19 -5 38 -7 42 -5 4 3 20 0 36 -6 15 -7 33 -13 38
-13 30 -5 103 -30 125 -45 14 -9 43 -25 65 -36 22 -11 42 -22 45 -25 3 -3 21
-16 40 -30 55 -38 108 -90 160 -155 227 -288 247 -690 50 -1002 -31 -48 -40
-71 -33 -81 13 -22 49 -24 64 -4 13 16 12 16 -6 2 -19 -15 -19 -15 0 11 11 15
23 25 27 22 4 -2 5 2 3 10 -3 7 5 24 17 38 13 14 23 30 24 37 2 29 5 33 14 27
6 -3 7 1 4 9 -3 9 -1 16 6 16 6 0 9 4 5 9 -3 5 1 15 8 23 8 7 12 19 9 26 -2 6
1 12 7 12 5 0 8 9 6 20 -2 11 0 20 5 20 5 0 6 7 3 17 -4 9 -2 14 3 11 5 -3 10
15 12 41 1 25 6 60 11 78 5 17 8 84 6 150 -14 553 -501 963 -1060 892z"/>
<path d="M862 1840 c-44 -27 -53 -57 -52 -164 3 -156 5 -149 -39 -167 -98 -42
-106 -174 -13 -233 l35 -22 3 -119 c5 -154 21 -200 94 -274 30 -31 70 -64 88
-73 29 -15 32 -21 32 -62 0 -36 5 -50 26 -70 15 -13 33 -22 40 -19 10 4 13
-32 16 -165 3 -166 3 -169 30 -204 15 -19 42 -42 61 -51 42 -20 107 -28 107
-13 0 6 5 4 10 -4 7 -11 10 -11 10 -2 0 7 5 10 10 7 6 -3 10 -2 10 4 0 5 11 8
25 5 15 -2 25 0 25 7 0 6 7 9 15 5 8 -3 15 -1 15 4 0 5 9 7 20 5 13 -3 18 0
14 7 -5 8 -1 9 10 5 9 -4 14 -3 11 2 -7 12 31 24 46 15 8 -4 9 -3 5 4 -7 12 5
16 33 13 7 -2 10 2 7 7 -3 6 1 13 10 16 10 4 13 2 9 -7 -4 -6 3 -1 15 13 12
14 19 19 15 13 -11 -23 5 -14 37 19 18 18 25 24 17 13 -13 -18 -12 -19 2 -8
20 16 18 53 -3 67 -12 7 -26 3 -55 -16 -105 -70 -266 -131 -346 -132 -42 -1
-52 3 -77 31 l-29 32 0 157 c-1 143 0 156 16 150 18 -7 62 36 64 63 1 9 2 31
3 50 0 19 7 36 15 39 9 3 11 0 7 -9 -4 -8 2 -3 14 11 12 14 19 18 15 10 -4 -8
6 1 23 20 17 19 31 31 32 26 0 -5 -8 -15 -17 -23 -16 -13 -16 -13 4 -3 13 6
28 20 34 31 9 17 8 20 -3 13 -7 -4 -2 6 12 23 14 17 29 28 34 25 5 -3 6 0 2 6
-3 6 -2 13 4 17 6 4 8 11 5 16 -4 5 -1 9 5 9 6 0 9 4 5 9 -3 5 -1 12 5 16 6 4
7 11 4 17 -4 6 0 14 7 19 11 7 11 9 1 9 -7 0 -11 4 -8 9 3 5 7 56 8 114 1 59
4 104 7 102 2 -3 10 3 18 13 9 10 11 11 7 2 -5 -8 8 0 27 17 30 29 34 39 37
92 3 54 0 62 -28 94 -17 20 -44 38 -60 42 l-29 6 1 122 c1 154 -5 177 -59 205
-44 24 -111 3 -135 -41 -10 -19 -16 -109 -18 -255 l0 -33 -92 3 -93 3 -2 123
c-1 137 -10 170 -52 195 -38 22 -69 21 -109 -3z m84 -57 c9 -13 13 -55 14
-140 l0 -123 -34 0 c-18 0 -38 6 -44 13 -14 17 -16 223 -2 232 6 3 7 11 4 17
-4 6 -2 8 4 4 6 -3 13 -2 17 4 9 15 26 12 41 -7z m414 -138 l0 -126 -42 3 -43
3 0 123 c0 125 3 137 40 144 39 7 45 -14 45 -147z m105 -211 c21 -28 18 -64
-7 -91 l-21 -23 -319 0 -319 0 -24 24 c-18 18 -23 31 -19 52 11 61 2 59 363
58 315 0 332 -1 346 -20z m-104 -179 c17 -6 19 -18 19 -109 0 -131 -17 -184
-80 -247 -108 -108 -270 -103 -374 11 -38 42 -55 76 -62 120 -10 64 -11 156
-2 168 6 7 7 12 1 12 -7 0 -10 40 -4 46 5 4 489 3 502 -1z m-193 -522 c-3 -25
-7 -28 -48 -31 -44 -3 -46 -2 -48 28 -2 30 -2 30 49 30 49 0 50 -1 47 -27z"/>
<path d="M779 1433 c-13 -16 -12 -17 4 -4 9 7 17 15 17 17 0 8 -8 3 -21 -13z"/>
<path d="M1095 1161 c-63 -79 -68 -106 -18 -106 36 0 37 -13 2 -75 l-23 -40
23 -23 c17 -15 25 -18 28 -9 3 7 11 19 20 27 8 8 12 15 8 15 -3 0 2 13 11 29
10 17 20 28 24 26 3 -2 7 6 7 18 1 12 9 27 17 33 14 9 13 13 -1 33 -11 17 -23
22 -44 19 -27 -4 -27 -4 -8 16 10 12 26 30 35 41 8 11 12 14 8 6 -4 -9 -3 -12
4 -7 15 9 -1 60 -20 64 -10 2 -38 -24 -73 -67z"/>
<path d="M457 1773 c-14 -13 -7 -43 12 -53 24 -12 34 -13 26 -1 -3 5 1 11 9
13 20 5 1 48 -22 48 -10 0 -22 -3 -25 -7z"/>
<path d="M358 1653 c-52 -63 -109 -187 -144 -313 -28 -99 -25 -347 4 -455 23
-82 86 -224 123 -276 20 -28 20 -32 6 -67 -18 -44 -14 -102 8 -136 19 -29 84
-80 92 -73 3 3 16 2 29 -3 15 -6 24 -6 24 0 0 6 5 10 11 10 5 0 7 -5 3 -11
-13 -22 38 13 78 53 40 40 40 41 36 104 -3 50 -9 69 -28 90 -41 43 -78 57
-137 51 -61 -6 -65 -3 -126 119 -53 106 -79 218 -82 354 -2 63 0 119 3 125 4
5 7 23 9 40 1 16 5 46 9 65 4 19 8 37 8 40 5 27 40 99 46 95 4 -3 6 5 2 17 -3
14 -1 19 6 14 8 -5 10 -2 6 8 -4 11 0 16 12 16 9 0 14 3 11 7 -4 3 -1 13 6 21
10 13 9 14 -3 8 -8 -5 -1 3 15 18 17 14 27 25 23 26 -4 0 -3 11 2 24 15 41
-23 62 -52 29z m183 -1112 c48 -48 36 -111 -26 -137 -38 -16 -70 -8 -96 22
-21 25 -30 52 -20 59 5 3 7 13 4 24 -6 25 41 61 79 61 19 0 40 -10 59 -29z"/>
<path d="M419 533 c-13 -16 -12 -17 4 -4 16 13 21 21 13 21 -2 0 -10 -8 -17
-17z"/>
<path d="M1723 494 c-9 -23 19 -46 44 -37 16 6 19 13 12 31 -10 26 -47 30 -56
6z"/>
</g>
</svg>
