<svg width="50" height="50" viewBox="0 0 50 50" fill="none" xmlns="http://www.w3.org/2000/svg">
<path d="M43.9998 9.20078L43.2798 8.50078L48.9998 2.70078L47.5798 1.30078L41.7998 7.08078L41.0998 6.38078C40.2669 5.54146 39.2761 4.87529 38.1846 4.42069C37.093 3.96609 35.9223 3.73204 34.7398 3.73204C33.5574 3.73204 32.3866 3.96609 31.295 4.42069C30.2035 4.87529 29.2127 5.54146 28.3798 6.38078L27.2998 7.44078C26.9251 7.06828 26.4182 6.8592 25.8898 6.8592C25.3614 6.8592 24.8545 7.06828 24.4798 7.44078L21.7598 10.0008C21.5723 10.1867 21.4236 10.4079 21.322 10.6516C21.2205 10.8953 21.1682 11.1568 21.1682 11.4208C21.1682 11.6848 21.2205 11.9462 21.322 12.1899C21.4236 12.4337 21.5723 12.6549 21.7598 12.8408L37.9998 29.0208C38.3745 29.3933 38.8814 29.6024 39.4098 29.6024C39.9382 29.6024 40.4451 29.3933 40.8198 29.0208L43.4598 26.3808C43.8323 26.0061 44.0414 25.4992 44.0414 24.9708C44.0414 24.4424 43.8323 23.9355 43.4598 23.5608L42.8798 22.9808L43.9998 22.0008C44.8416 21.1611 45.5094 20.1635 45.9651 19.0653C46.4208 17.9671 46.6553 16.7898 46.6553 15.6008C46.6553 14.4118 46.4208 13.2345 45.9651 12.1363C45.5094 11.038 44.8416 10.0405 43.9998 9.20078ZM39.3998 27.6208L23.1798 11.3808L25.7998 8.76078L41.9998 24.9808L39.3998 27.6208ZM26.4798 32.3008L30.4798 28.3008L29.0598 26.8808L25.0598 30.8808L19.3998 25.2208L23.3998 21.2208L21.9998 19.8808L17.9998 23.8808L14.4998 20.3208C14.1279 19.9662 13.6337 19.7684 13.1198 19.7684C12.6059 19.7684 12.1118 19.9662 11.7398 20.3208L9.2398 22.8408C8.9025 23.2095 8.71544 23.6911 8.71544 24.1908C8.71544 24.6905 8.9025 25.1721 9.2398 25.5408L6.3798 28.3808C5.54048 29.2137 4.87432 30.2045 4.41971 31.296C3.96511 32.3876 3.73106 33.5583 3.73106 34.7408C3.73106 35.9232 3.96511 37.094 4.41971 38.1855C4.87432 39.2771 5.54048 40.2679 6.3798 41.1008L7.0798 41.8208L1.2998 47.5808L2.7198 49.0008L8.4998 43.2208L9.1998 44.0008C10.0395 44.8425 11.0371 45.5104 12.1353 45.9661C13.2335 46.4217 14.4108 46.6563 15.5998 46.6563C16.7888 46.6563 17.9661 46.4217 19.0643 45.9661C20.1625 45.5104 21.1601 44.8425 21.9998 44.0008L24.8398 41.1608C25.2073 41.4925 25.6848 41.6761 26.1798 41.6761C26.6749 41.6761 27.1523 41.4925 27.5198 41.1608L29.9998 38.5408C30.3544 38.1688 30.5522 37.6747 30.5522 37.1608C30.5522 36.6469 30.3544 36.1527 29.9998 35.7808L26.4798 32.3008ZM25.9998 39.6008L10.6598 24.2408L13.0998 21.7408L28.5398 37.1208L25.9998 39.6008Z" fill="white"/>
</svg>
