<svg width="50" height="50" viewBox="0 0 50 50" fill="none" xmlns="http://www.w3.org/2000/svg">
<g clip-path="url(#clip0_3883_9458)">
<path d="M46.7477 27.4805C45.6149 27.4805 44.5992 28.252 44.3453 29.3555C42.3531 38.2129 34.443 44.8438 24.9996 44.8438C19.7164 44.8438 14.6969 42.7246 10.9859 39.0137L15.4879 34.5117H3.08556V46.9141L7.48009 42.5098C12.1188 47.1582 18.3883 49.8047 24.9996 49.8047C36.7867 49.8047 46.6793 41.5332 49.1891 30.498C49.5406 28.9551 48.3297 27.4805 46.7477 27.4805ZM5.65392 20.6445C7.6461 11.7871 15.5563 5.15625 24.9996 5.15625C30.2828 5.15625 35.3024 7.27539 39.0133 10.9863L34.5113 15.4883H46.9137V3.08594L42.5094 7.49023C37.8805 2.8418 31.6109 0.195312 24.9996 0.195312C13.2125 0.195312 3.31993 8.45703 0.810166 19.502C0.458603 21.0449 1.66954 22.5195 3.25157 22.5195C4.39415 22.5195 5.40978 21.748 5.65392 20.6445Z" fill="white"/>
</g>
<defs>
<clipPath id="clip0_3883_9458">
<rect width="50" height="50" fill="white"/>
</clipPath>
</defs>
</svg>
