<?xml version="1.0" encoding="utf-8"?>
<!-- Generator: Adobe Illustrator 23.0.3, SVG Export Plug-In . SVG Version: 6.00 Build 0)  -->
<svg version="1.1" id="Layer_1" xmlns="http://www.w3.org/2000/svg" xmlns:xlink="http://www.w3.org/1999/xlink" x="0px" y="0px"
	 viewBox="0 0 38.7 43.7" style="enable-background:new 0 0 38.7 43.7;" xml:space="preserve">
<style type="text/css">
	.st0{fill:#FFFFFF;}
	.st1{fill:#7D671A;}
</style>
<path id="Path_24_1_" className="st0" d="M36.6,9.9L21.1,1c-1-0.6-2.3-0.6-3.3,0l-15.6,9c-1,0.6-1.7,1.7-1.7,2.9v18
	c0,1.2,0.6,2.3,1.6,2.9l15.5,9c1,0.6,2.3,0.6,3.3,0l15.6-9c1-0.6,1.7-1.7,1.7-2.9v-18C38.2,11.7,37.6,10.6,36.6,9.9z"/>
<g id="Group_3" transform="translate(99.68 0)">
	<path id="Path_24" className="st1" d="M-71,15.4l-8.4-4.9c-0.5-0.3-1.2-0.3-1.8,0l-8.4,4.9c-0.5,0.3-0.9,0.9-0.9,1.6v9.7
		c0,0.6,0.3,1.2,0.9,1.6l8.4,4.9c0.5,0.3,1.2,0.3,1.8,0l8.4-4.9c0.5-0.3,0.9-0.9,0.9-1.6V17C-70.1,16.3-70.5,15.7-71,15.4z
		 M-71.2,26.7c0,0.3-0.1,0.5-0.3,0.6l-8.4,4.9c-0.2,0.1-0.5,0.1-0.7,0l-8.4-4.9c-0.2-0.2-0.4-0.4-0.4-0.6v-9.7
		c0-0.3,0.1-0.5,0.3-0.6l8.4-4.9c0.2-0.1,0.5-0.1,0.7,0l8.4,4.9c0.2,0.1,0.3,0.3,0.3,0.6L-71.2,26.7z"/>
	<path id="Path_25" className="st1" d="M-73.8,21.2l-6.8-4v-4.2l-1.2,0.7v3.5l-4.9,2.8v-3.5l-1.2,0.8v8.9l1.2-0.7V22l6.8,4v4.6l1.2-0.7
		v-4l4.9-2.8v3.9l1.2-0.7v-8.9l-1.2,0.7C-73.8,18.1-73.8,21.2-73.8,21.2z M-80,21.6v3.1l-6.4-3.7l4.5-2.6v4.3l1.2-0.7v-3.6l6.4,3.8
		l-4.5,2.7V21L-80,21.6z"/>
</g>
</svg>
