<?xml version="1.0" standalone="no"?>
<!DOCTYPE svg PUBLIC "-//W3C//DTD SVG 20010904//EN"
 "http://www.w3.org/TR/2001/REC-SVG-20010904/DTD/svg10.dtd">
<svg version="1.0" xmlns="http://www.w3.org/2000/svg"
 width="430.000000pt" height="900.000000pt" viewBox="0 0 430.000000 900.000000"
 preserveAspectRatio="xMidYMid meet">

<g transform="translate(0.000000,900.000000) scale(0.100000,-0.100000)"
fill="#000000" stroke="none">
<path d="M2743 8356 c28 -22 6 -56 -36 -57 -30 0 -31 -1 -9 -11 12 -6 22 -15
22 -20 0 -12 -14 -10 -28 4 -6 6 -34 11 -62 10 -27 0 -50 3 -50 9 0 5 -7 9
-15 9 -10 0 -15 -7 -13 -17 2 -11 -2 -17 -10 -15 -7 1 -20 -4 -28 -12 -8 -9
-30 -18 -50 -22 -28 -5 -32 -9 -23 -20 10 -12 9 -13 -5 -8 -9 3 -19 17 -22 30
-7 27 -14 30 -32 12 -17 -17 -15 -54 4 -72 13 -14 13 -16 1 -16 -8 0 -17 -6
-20 -14 -3 -8 -18 -20 -33 -28 -31 -14 -77 -75 -68 -89 8 -14 -14 -73 -34 -90
-9 -8 -28 -57 -41 -109 -13 -52 -30 -102 -37 -110 -7 -8 -17 -27 -23 -42 -8
-22 -7 -29 10 -40 17 -11 19 -27 22 -130 2 -94 6 -120 20 -135 9 -11 17 -24
17 -28 0 -5 7 -28 16 -52 l17 -42 19 24 c11 14 30 25 42 25 24 0 81 -52 69
-63 -13 -14 -41 -6 -46 13 -4 16 -10 18 -29 11 -31 -11 -34 -46 -9 -101 l21
-45 0 41 c0 51 23 76 40 45 6 -12 18 -21 26 -21 11 0 13 -6 9 -20 -8 -27 -10
-114 -2 -127 4 -6 27 -17 52 -24 49 -15 50 -16 35 -53 -7 -20 -6 -26 4 -26 10
0 12 -8 7 -33 -8 -33 -7 -36 26 -72 10 -11 33 -56 51 -100 18 -44 35 -85 38
-92 7 -15 -62 -59 -254 -165 -81 -45 -164 -92 -184 -105 -118 -79 -194 -217
-153 -282 5 -9 4 -12 -2 -8 -15 9 -66 -40 -60 -58 4 -8 2 -15 -3 -15 -5 0 -8
-12 -8 -27 1 -42 -12 -73 -31 -73 -12 0 -13 -2 -3 -9 15 -9 15 -20 0 -39 -6
-7 -8 -15 -5 -18 3 -3 -13 -20 -36 -38 -55 -42 -84 -86 -158 -236 -55 -111
-72 -159 -126 -335 -8 -27 -21 -63 -28 -80 -32 -75 -82 -342 -115 -610 -11
-93 -25 -201 -30 -239 -19 -128 -24 -251 -11 -302 7 -27 14 -56 16 -64 2 -8
14 -51 28 -95 42 -137 47 -171 47 -318 -1 -78 4 -164 9 -192 17 -80 28 -122
35 -134 4 -6 9 -21 11 -33 3 -13 10 -45 16 -71 10 -42 9 -50 -7 -69 -16 -17
-19 -36 -18 -117 0 -53 5 -116 10 -141 7 -33 6 -59 -4 -95 -16 -57 -16 -126
-2 -171 19 -58 22 -79 26 -239 4 -164 12 -369 20 -510 2 -44 6 -154 7 -245 3
-94 8 -165 14 -167 5 -2 7 -18 5 -36 -3 -17 -2 -30 1 -27 3 3 7 21 10 40 3 19
14 60 25 90 57 162 99 646 76 892 l-7 77 24 -5 24 -5 -23 12 c-56 30 -3 120
93 159 52 21 57 21 112 7 83 -21 113 -34 119 -52 4 -9 -2 -46 -11 -84 -15 -57
-16 -76 -7 -114 13 -50 16 -156 6 -207 -5 -24 -11 -31 -25 -27 -23 6 -25 -18
-6 -55 14 -28 11 -130 -4 -107 -6 9 -9 10 -9 2 0 -6 5 -15 10 -18 6 -3 10 -27
10 -53 0 -41 7 -58 54 -125 72 -104 86 -169 61 -292 -13 -69 -14 -95 -5 -138
15 -72 14 -197 -1 -230 -12 -28 -65 -52 -90 -42 -10 4 -15 -1 -15 -15 0 -13 4
-16 10 -10 14 14 29 12 19 -2 -16 -27 -9 -36 43 -52 62 -19 88 -54 73 -95 -8
-19 -15 -23 -44 -19 -27 3 -32 1 -23 -9 6 -7 16 -13 23 -13 21 0 55 -50 55
-79 0 -15 -12 -44 -27 -66 -24 -35 -42 -102 -24 -91 7 5 6 -252 -1 -259 -3 -3
-4 -18 -2 -33 2 -15 5 -63 8 -107 3 -44 6 -81 7 -82 3 -5 7 -23 8 -43 1 -19 8
-20 151 -20 140 0 150 1 150 19 0 18 -18 121 -46 271 -18 93 -32 217 -44 385
-16 220 -29 488 -24 496 2 4 9 59 15 121 6 62 16 141 23 174 11 51 11 69 0
100 -19 55 -18 73 4 67 26 -6 173 23 181 36 5 7 75 11 217 11 204 0 322 3 494
15 47 3 90 2 97 -2 6 -5 14 -35 16 -68 2 -46 4 -39 5 33 2 72 5 92 16 92 8 0
16 -5 18 -11 4 -13 48 -3 48 11 0 5 -7 6 -17 3 -11 -4 -14 -3 -9 5 9 15 43 15
48 0 7 -20 52 -16 84 8 17 13 36 24 42 24 24 0 63 24 58 37 -3 8 2 13 13 13
24 0 43 23 36 43 -5 11 4 16 32 22 45 8 86 32 78 45 -6 10 90 85 165 128 25
14 51 34 58 44 7 10 22 18 33 18 11 0 19 7 20 18 2 42 6 69 14 92 7 22 6 23
-9 11 -9 -7 -16 -20 -16 -27 0 -8 -4 -14 -10 -14 -5 0 -10 7 -10 15 0 22 -22
18 -60 -10 -18 -13 -70 -38 -114 -56 -64 -24 -92 -30 -133 -27 -102 8 -134 66
-49 89 22 6 59 20 81 32 101 52 166 87 240 129 44 26 122 63 173 84 l92 39 0
1916 0 1916 -77 18 c-43 10 -84 19 -90 21 -7 2 -13 12 -13 22 0 27 -20 42 -57
42 -19 0 -49 7 -68 14 -31 13 -35 19 -35 54 0 50 -46 123 -100 157 -22 14 -40
29 -40 33 0 15 -69 81 -101 98 -22 11 -60 17 -118 18 l-85 1 -9 -55 c-5 -30
-15 -62 -23 -71 -8 -8 -14 -27 -14 -42 0 -14 -4 -28 -9 -32 -5 -3 -13 -20 -16
-38 -13 -57 -54 -133 -79 -145 -13 -6 -37 -9 -52 -7 -16 1 -33 0 -39 -4 -15
-10 -95 -8 -95 2 0 5 -9 7 -20 4 -14 -4 -25 2 -36 19 -9 13 -22 24 -29 24 -13
0 -31 36 -27 52 1 4 -8 7 -21 5 -16 -1 -22 3 -21 16 1 10 -5 17 -17 17 -11 0
-19 4 -19 9 0 15 -30 21 -51 11 -11 -6 -18 -19 -16 -33 3 -30 -27 -29 -31 1
-4 27 -22 19 -22 -10 0 -17 -3 -18 -15 -8 -8 7 -22 10 -30 6 -8 -3 -15 -1 -15
4 0 6 -7 10 -16 10 -9 0 -23 8 -30 18 -12 14 -15 15 -23 3 -8 -12 -13 -11 -30
10 -11 13 -18 30 -16 38 3 8 0 11 -9 8 -16 -6 -40 16 -29 26 3 4 -3 7 -14 7
-23 0 -36 22 -27 45 10 26 25 16 19 -12 -5 -27 -5 -27 5 -5 12 28 4 46 -16 38
-9 -3 -14 2 -14 14 0 11 5 20 11 20 6 0 17 6 24 14 12 12 10 15 -17 20 -27 5
-29 8 -17 22 8 10 15 12 17 5 2 -6 11 -11 20 -11 12 1 9 7 -13 26 -27 22 -28
26 -12 35 9 5 17 17 17 25 0 8 -4 13 -9 9 -5 -3 -12 -1 -15 4 -4 5 -2 12 4 16
16 10 12 25 -5 19 -18 -7 -19 0 -4 28 7 13 7 18 1 14 -6 -3 -13 -2 -17 4 -4 6
-10 8 -15 5 -5 -3 -12 0 -16 6 -4 7 -3 9 3 6 7 -4 9 10 7 41 -2 26 -7 89 -10
140 l-6 92 28 0 c37 0 24 11 -17 13 -39 2 -53 27 -15 27 13 0 28 5 31 10 3 6
-2 10 -13 10 -16 0 -18 5 -14 27 3 16 14 41 24 58 19 31 24 70 10 79 -15 9
-14 156 2 181 24 37 100 107 104 96 2 -6 8 -11 13 -11 6 0 7 5 4 10 -3 6 4 10
18 10 14 0 44 8 68 19 35 14 67 18 153 17 76 -1 111 -6 114 -14 5 -16 119 -16
124 0 6 18 115 14 136 -6 10 -9 23 -16 29 -16 14 0 46 -37 76 -89 23 -40 26
-41 29 -20 3 21 5 18 15 -14 10 -34 10 -38 -4 -33 -10 4 -13 2 -10 -7 3 -8 8
-39 12 -71 17 -134 50 -33 41 126 -6 117 -3 138 23 138 13 0 14 2 2 9 -12 8
-12 12 2 26 10 9 17 23 17 31 0 8 7 14 16 14 13 0 14 3 4 15 -6 8 -9 19 -6 24
4 5 -2 14 -11 20 -16 9 -16 10 -2 16 11 4 14 14 11 32 l-5 26 31 -18 c22 -13
32 -28 35 -49 l4 -31 1 32 c3 44 -47 100 -95 109 -23 4 -37 13 -40 25 -3 10
-10 16 -15 13 -9 -6 -58 44 -58 59 0 11 22 8 40 -5 9 -7 3 0 -13 15 -16 16
-35 26 -42 23 -8 -3 -17 3 -20 14 -6 19 -52 40 -89 40 -12 0 -30 6 -41 13 -11
7 -45 19 -75 26 -30 8 -59 16 -65 19 -5 4 -35 7 -65 8 -30 2 -74 5 -98 8 -24
3 -40 1 -37 -4 3 -5 -3 -13 -13 -19 -15 -8 -27 -4 -57 16 -33 22 -41 24 -58
13 -17 -10 -22 -10 -32 4 -7 9 -18 16 -26 16 -10 -1 -9 -5 4 -14z m105 -28
c16 -16 15 -28 -3 -28 -8 0 -15 6 -15 13 0 8 -3 7 -10 -3 -7 -11 -12 -12 -21
-3 -6 6 -8 16 -5 22 9 15 39 14 54 -1z m502 -88 c13 -8 13 -10 -2 -10 -9 0
-20 5 -23 10 -8 13 5 13 25 0z m-943 -35 c6 -14 7 -23 2 -19 -13 8 -31 44 -22
44 4 0 13 -11 20 -25z m883 -155 c0 -5 -2 -10 -4 -10 -3 0 -8 5 -11 10 -3 6
-1 10 4 10 6 0 11 -4 11 -10z m-236 -95 c-4 -8 -10 -15 -15 -15 -4 0 -6 7 -3
15 4 8 10 15 15 15 4 0 6 -7 3 -15z m476 -79 c0 -2 -7 -6 -15 -10 -8 -3 -15
-1 -15 4 0 6 7 10 15 10 8 0 15 -2 15 -4z m-1317 -81 c-3 -9 -8 -14 -10 -11
-3 3 -2 9 2 15 9 16 15 13 8 -4z m207 -615 c0 -5 -2 -10 -4 -10 -3 0 -8 5 -11
10 -3 6 -1 10 4 10 6 0 11 -4 11 -10z m55 -122 c39 -81 46 -114 15 -75 -11 14
-20 28 -20 32 0 4 -9 18 -20 32 -17 22 -29 83 -15 83 3 0 21 -33 40 -72z
m1042 -529 c18 -11 33 -25 33 -30 0 -5 6 -9 13 -9 6 0 25 -12 40 -26 l29 -25
-44 -52 c-24 -29 -75 -92 -114 -142 -38 -49 -76 -98 -84 -109 -8 -10 -48 -47
-88 -81 l-73 -63 -54 5 c-37 4 -60 2 -70 -7 -18 -15 -20 -51 -3 -68 19 -19 2
-25 -29 -9 -15 8 -59 22 -98 32 -52 14 -77 26 -96 48 -18 22 -38 32 -70 37
-24 3 -43 11 -42 17 1 6 -11 26 -27 43 -17 18 -24 30 -18 27 41 -15 130 -29
137 -21 6 5 2 24 -9 44 -11 19 -24 45 -29 58 -11 24 -16 31 -56 76 -14 16 -25
34 -25 41 0 6 -11 27 -25 45 -28 38 -17 54 16 24 10 -9 19 -14 19 -10 0 4 10
1 23 -6 12 -7 25 -11 30 -10 4 1 7 -2 7 -8 0 -5 -8 -10 -17 -10 -16 -1 -16 -2
1 -12 15 -8 21 -8 24 0 3 9 9 9 25 0 12 -7 25 -12 29 -13 13 0 21 -15 7 -15
-16 0 29 -34 49 -37 43 -6 60 -33 21 -33 -18 0 -20 -2 -8 -16 8 -10 9 -18 3
-22 -15 -10 -12 -64 4 -81 9 -10 27 -12 61 -7 65 9 159 38 142 44 -11 4 -11 6
0 13 10 6 11 9 2 9 -22 0 -14 27 12 44 14 9 25 24 25 34 0 25 86 114 142 146
54 31 90 78 115 151 15 46 17 48 26 27 6 -12 25 -32 44 -43z m-797 -100 c0
-16 -32 -23 -40 -8 -5 7 -7 16 -4 20 6 10 44 -1 44 -12z m750 -419 c20 -12 9
-21 -18 -13 -12 3 -19 9 -16 14 7 11 15 11 34 -1z m-808 -46 c-29 -20 -29 -54
-1 -54 11 0 29 5 39 10 16 9 18 8 14 -5 -8 -21 -51 -30 -69 -15 -20 17 -19 57
3 69 27 16 39 13 14 -5z"/>
<path d="M2888 8353 c7 -3 16 -2 19 1 4 3 -2 6 -13 5 -11 0 -14 -3 -6 -6z"/>
<path d="M2570 8340 c-8 -5 -12 -12 -9 -15 4 -3 12 1 19 10 14 17 11 19 -10 5z"/>
<path d="M2698 8343 c6 -2 18 -2 25 0 6 3 1 5 -13 5 -14 0 -19 -2 -12 -5z"/>
<path d="M3573 7823 c9 -2 23 -2 30 0 6 3 -1 5 -18 5 -16 0 -22 -2 -12 -5z"/>
<path d="M3420 7458 c-25 -6 -58 -20 -74 -31 -16 -12 -26 -15 -21 -8 4 8 4 12
-1 9 -5 -2 -24 -10 -41 -17 -34 -13 -41 -25 -23 -36 6 -3 10 -12 9 -18 0 -9
-2 -9 -6 1 -6 16 -20 15 -26 -2 -6 -16 38 -116 52 -116 5 0 11 6 14 13 2 6 10
-7 17 -29 14 -48 40 -64 100 -64 53 0 81 14 108 55 13 21 30 35 42 35 12 0 24
9 29 23 11 28 19 170 9 154 -6 -9 -8 -9 -8 0 0 19 -55 43 -97 42 -21 -1 -58
-6 -83 -11z"/>
<path d="M3655 7435 c0 -14 3 -25 8 -25 4 0 7 11 7 25 0 14 -3 25 -7 25 -5 0
-8 -11 -8 -25z"/>
<path d="M2938 7423 c7 -3 16 -2 19 1 4 3 -2 6 -13 5 -11 0 -14 -3 -6 -6z"/>
<path d="M2908 7396 c-64 -17 -94 -40 -109 -81 -7 -19 -17 -35 -21 -35 -4 0
-8 -8 -8 -17 0 -14 -4 -13 -21 6 -12 12 -24 19 -27 16 -4 -4 0 -12 8 -18 9 -7
14 -20 12 -29 -2 -10 0 -18 5 -18 4 0 14 -4 21 -9 11 -6 8 -14 -13 -35 -30
-30 -29 -49 4 -54 12 -2 25 -10 28 -18 3 -8 10 -14 15 -14 6 0 7 7 4 16 -5 13
-2 15 15 11 19 -5 19 -4 7 11 -22 26 -38 70 -37 100 1 23 2 21 10 -11 18 -77
69 -117 148 -117 52 0 118 33 133 66 7 15 14 20 18 14 4 -7 13 3 20 22 8 18
22 41 31 51 16 14 17 21 7 43 -10 20 -9 27 3 35 10 8 8 9 -8 4 -18 -5 -25 -1
-32 18 -21 54 -106 72 -213 43z"/>
<path d="M2675 7300 c4 -6 11 -8 16 -5 14 9 11 15 -7 15 -8 0 -12 -5 -9 -10z"/>
<path d="M3095 7020 c-23 -104 63 -147 177 -88 21 11 41 17 46 14 5 -3 14 5
20 19 l11 24 -34 -15 c-26 -11 -45 -12 -77 -4 -30 6 -53 6 -75 -2 -18 -7 -35
-9 -38 -6 -3 2 -6 24 -8 46 -2 49 -13 54 -22 12z"/>
<path d="M2635 6879 c-12 -19 5 -23 22 -6 16 16 16 17 1 17 -9 0 -20 -5 -23
-11z"/>
<path d="M3346 6806 c3 -8 -4 -16 -18 -20 -32 -8 -47 -6 -23 3 17 7 16 9 -12
13 -23 3 -53 -6 -109 -34 -48 -23 -92 -38 -115 -38 -43 0 -60 -15 -26 -24 42
-11 89 -6 185 20 54 15 113 30 132 34 39 7 80 30 80 44 0 4 -7 3 -15 -4 -13
-10 -19 -10 -33 4 -23 20 -53 22 -46 2z"/>
<path d="M2662 6734 c10 -10 20 -15 24 -12 3 4 -5 12 -18 18 -22 12 -22 12 -6
-6z"/>
<path d="M3270 6630 c-19 -10 -43 -21 -52 -24 -11 -3 -15 -12 -11 -26 5 -19
11 -21 47 -15 64 10 72 14 86 39 24 47 -9 59 -70 26z"/>
<path d="M3615 1590 c3 -5 8 -10 11 -10 2 0 4 5 4 10 0 6 -5 10 -11 10 -5 0
-7 -4 -4 -10z"/>
<path d="M1899 1437 c-7 -17 -2 -68 10 -88 13 -22 12 -28 -4 -52 -11 -17 -26
-27 -42 -27 -21 0 -23 -2 -13 -14 12 -16 4 -122 -10 -131 -14 -9 13 -66 28
-60 8 3 18 5 23 5 18 0 9 28 -11 33 -11 3 -20 9 -20 15 0 14 41 57 51 55 5 -2
9 5 9 15 0 9 5 24 11 32 8 12 10 8 7 -17 -3 -18 -1 -30 4 -27 4 3 8 -5 9 -18
0 -22 1 -22 8 -3 19 46 22 150 6 210 -9 32 -17 61 -19 62 -4 4 -46 13 -47 10z"/>
<path d="M3380 1389 c0 -5 5 -7 10 -4 6 3 10 8 10 11 0 2 -4 4 -10 4 -5 0 -10
-5 -10 -11z"/>
<path d="M3460 1381 c0 -25 6 -27 13 -6 4 8 2 17 -3 20 -6 4 -10 -3 -10 -14z"/>
<path d="M1610 1212 c0 -4 6 -16 14 -27 7 -11 16 -33 20 -49 5 -22 10 -26 19
-17 8 8 6 22 -11 56 -19 39 -42 60 -42 37z"/>
<path d="M1697 1008 c7 -57 13 -78 23 -78 15 0 12 32 -5 74 -19 44 -23 45 -18
4z"/>
<path d="M3482 1024 c-18 -7 -30 -9 -27 -4 3 6 1 10 -6 10 -7 0 -9 -10 -6 -25
2 -14 2 -23 -1 -20 -8 7 -42 -26 -42 -40 0 -7 11 -20 25 -29 18 -12 25 -13 25
-4 0 9 3 9 9 -1 8 -12 12 -9 23 15 7 16 21 38 30 48 19 20 24 51 10 60 -4 2
-22 -2 -40 -10z"/>
<path d="M3285 1023 c-36 -5 -54 -20 -34 -28 8 -3 43 4 79 14 61 18 62 19 25
19 -22 -1 -53 -3 -70 -5z"/>
<path d="M3554 991 c14 -16 15 -20 2 -30 -8 -6 -17 -23 -20 -36 -4 -14 -11
-25 -16 -25 -24 0 -6 -117 19 -122 28 -6 78 34 112 90 31 52 32 55 16 80 -8
15 -24 32 -34 37 -10 6 -20 12 -23 15 -3 3 -20 6 -39 7 -32 2 -33 1 -17 -16z"/>
<path d="M1744 888 c14 -32 36 -50 36 -29 0 6 -5 11 -11 11 -5 0 -7 5 -4 10 4
6 1 17 -5 25 -21 26 -30 16 -16 -17z"/>
<path d="M1935 899 c17 -13 39 -32 50 -42 44 -42 62 -49 86 -36 23 12 23 12
-12 30 -19 10 -41 21 -49 24 -8 4 -31 14 -50 23 -55 26 -57 26 -25 1z"/>
<path d="M1852 783 c26 -26 51 -44 55 -40 4 4 -4 15 -17 24 -12 9 -32 27 -43
40 -11 12 -25 23 -31 23 -6 0 10 -21 36 -47z"/>
</g>
</svg>
