<svg width="20" height="20" viewBox="0 0 20 20" fill="none" xmlns="http://www.w3.org/2000/svg">
<g id="Layer 5">
<path id="Vector" d="M19.51 16.0209C19.5113 16.8773 19.1985 17.7045 18.6309 18.3459C18.0633 18.9872 17.2803 19.3981 16.43 19.5009C16.29 19.5109 16.14 19.5109 16 19.5109C15.86 19.5109 15.71 19.5109 15.57 19.5009C11.4023 19.3911 7.44228 17.6581 4.53384 14.671C1.6254 11.6839 -0.00144415 7.67904 9.61936e-07 3.50991C0.000172717 2.95646 0.131181 2.41089 0.382337 1.91771C0.633493 1.42453 0.997683 0.997703 1.44519 0.672063C1.89271 0.346423 2.41086 0.131189 2.95739 0.0439214C3.50392 -0.0433463 4.06333 -0.000175148 4.59 0.169911C4.59265 0.169911 4.5952 0.170965 4.59707 0.17284C4.59895 0.174715 4.6 0.177258 4.6 0.179911L6.67 5.02991C6.465 5.45858 6.17486 5.84102 5.81726 6.15392C5.45966 6.46682 5.04209 6.70363 4.59 6.84991C5.15587 8.76274 6.19176 10.5034 7.60315 11.913C9.01454 13.3227 10.7565 14.3564 12.67 14.9199C12.8172 14.4681 13.0556 14.0512 13.3704 13.6952C13.6851 13.3391 14.0696 13.0514 14.5 12.8499L19.33 14.9099V14.9199C19.4521 15.274 19.5129 15.6464 19.51 16.0209Z" fill="#212121"/>
</g>
</svg>
