<svg width="20" height="20" viewBox="0 0 20 20" fill="none" xmlns="http://www.w3.org/2000/svg">
<g id="About Us">
<path id="Vector" fill-rule="evenodd" clip-rule="evenodd" d="M14.3038 12.4344V15.3231C14.3038 15.5316 14.1994 15.7262 14.0256 15.8415C14.0256 15.8415 12.6355 16.791 9.95071 16.791C7.26593 16.791 5.87578 15.8415 5.87578 15.8415C5.7019 15.7262 5.59742 15.5316 5.59742 15.3231V12.4344C5.59742 10.7189 6.98802 9.32833 8.70354 9.32833H11.1977C12.9132 9.32833 14.3038 10.7189 14.3038 12.4344ZM9.95071 3.10938C11.3647 3.10938 12.5138 4.09266 12.5138 5.67818C12.5138 6.56937 12.1232 7.46072 11.5274 8.03221C11.087 8.4549 10.5382 8.70639 9.95071 8.70639C9.3631 8.70639 8.81444 8.4549 8.37399 8.03221C7.77817 7.46072 7.38757 6.56937 7.38757 5.67818C7.38757 4.09266 8.53653 3.10938 9.95071 3.10938ZM15.2367 4.58639C16.3829 4.58639 17.3146 5.38326 17.3146 6.66848C17.3146 7.37937 17.0022 8.09012 16.5268 8.54624C16.1668 8.89176 15.7171 9.0952 15.2367 9.0952C14.7564 9.0952 14.3067 8.89176 13.9465 8.54624C13.4713 8.09012 13.1589 7.37937 13.1589 6.66848C13.1589 5.38326 14.0904 4.58639 15.2367 4.58639ZM4.66459 4.58639C5.81086 4.58639 6.74235 5.38326 6.74235 6.66848C6.74235 7.37937 6.43011 8.09012 5.95474 8.54624C5.59459 8.89176 5.14489 9.0952 4.66459 9.0952C4.18429 9.0952 3.73459 8.89176 3.37444 8.54624C2.89907 8.09012 2.58683 7.37937 2.58683 6.66848C2.58683 5.38326 3.51832 4.58639 4.66459 4.58639ZM4.36653 15.5421C2.49086 15.4765 1.5225 14.8092 1.5225 14.8092C1.34862 14.694 1.24414 14.4994 1.24414 14.2909V12.7453C1.24414 11.03 2.63489 9.63923 4.35026 9.63923H4.97892C5.10519 9.63923 5.22966 9.64684 5.3519 9.66146C4.72847 10.4143 4.35369 11.3806 4.35369 12.4344V15.3231C4.35369 15.3968 4.35802 15.4698 4.36653 15.5421ZM14.5494 9.66146C14.6718 9.64684 14.7962 9.63923 14.9225 9.63923H15.551C17.2665 9.63923 18.6571 11.03 18.6571 12.7453V14.2909C18.6571 14.4994 18.5526 14.694 18.3788 14.8092C18.3788 14.8092 17.4104 15.4765 15.5347 15.5421C15.5434 15.4698 15.5477 15.3968 15.5477 15.3231V12.4344C15.5477 11.3806 15.1729 10.4143 14.5494 9.66146Z" fill="white"/>
</g>
</svg>
