<svg width="20" height="20" viewBox="0 0 20 20" fill="none" xmlns="http://www.w3.org/2000/svg">
<g id="Contact Us">
<path id="Vector" d="M16.9776 16.4051C16.9514 15.5949 16.8989 14.8101 16.6365 14.0506C16.5577 13.8228 16.479 13.5949 16.3478 13.4177C16.1904 13.2405 15.9804 13.038 15.7443 12.9873C15.1932 12.8354 14.6684 12.7089 14.1173 12.5823C13.3038 12.3797 12.4641 12.1772 11.6506 12C11.5981 12 11.5457 12 11.4669 11.9747C11.4669 12 11.4407 12.0506 11.4407 12.0759C11.3095 12.5823 11.152 13.0886 10.9946 13.5949C10.8109 14.2025 10.5747 14.7848 10.3648 15.3924C10.3386 15.4684 10.3123 15.519 10.2861 15.5949C10.2598 15.3165 10.2074 14.962 10.1549 14.6076C10.0761 13.9494 9.97118 13.3165 9.97118 13.2911C9.99743 13.2152 10.0237 13.1392 10.0761 13.0886C10.0761 13.0886 10.0761 13.0633 10.1024 13.0633C10.1286 13.0127 10.1286 12.9873 10.1549 12.9367C10.1549 12.9114 10.1811 12.9114 10.1811 12.8861C10.2074 12.8354 10.2336 12.7848 10.2336 12.7089C10.2336 12.6582 10.2074 12.6076 10.1811 12.557V12.5316V12.5063C10.1811 12.481 10.1549 12.481 10.1549 12.4557V12.4304C10.1549 12.4051 10.1286 12.4051 10.1024 12.3797C10.0761 12.3544 10.0499 12.3544 10.0237 12.3544H8.92153C8.89529 12.3544 8.84281 12.3797 8.81657 12.4304V12.4557C8.79033 12.481 8.76409 12.5316 8.76409 12.6076C8.76409 12.6329 8.73785 12.6582 8.73785 12.7089C8.73785 12.7848 8.76409 12.8354 8.79033 12.8861V12.9114L8.81657 12.9367C8.84281 12.9873 8.84281 13.0127 8.86905 13.0633V13.0886C8.89529 13.1646 8.94778 13.2405 8.97402 13.3165C8.97402 13.3418 8.94778 13.4684 8.92153 13.6962C8.84281 14.2025 8.73785 15.0633 8.65912 15.6203C8.63288 15.5443 8.5804 15.4937 8.5804 15.4177C8.37047 14.8101 8.1343 14.2278 7.95061 13.6203C7.79316 13.1139 7.66195 12.6076 7.50451 12.1013C7.50451 12.0759 7.47826 12.0253 7.47826 12C7.39954 12 7.34706 12 7.29458 12.0253L5.09031 12.557C4.46052 12.7089 3.83073 12.8608 3.20094 13.038C2.99101 13.0886 2.78108 13.2658 2.64987 13.443L2.62363 13.4684C2.49243 13.5949 2.4137 13.8228 2.33498 14.0253C2.09881 14.7089 2.04632 15.4177 2.02008 16.1266V16.4051C1.99384 16.9114 1.91512 16.8101 2.43994 17.0127C2.57115 17.0633 2.70236 17.1139 2.83356 17.1392C3.75201 17.4177 4.69669 17.6203 5.64138 17.7468C6.55982 17.8734 7.50451 17.924 8.44919 17.9747C8.63288 17.9747 10.0761 18 10.0761 18C10.2598 18 10.4435 18 10.6272 17.9747C12.123 17.924 13.5925 17.7975 15.0357 17.4684C15.4294 17.3671 15.8492 17.2658 16.2428 17.1392C16.3741 17.0886 16.5053 17.0633 16.6365 17.0127C17.0826 16.8101 17.0038 16.9114 16.9776 16.4051ZM12.3591 6.73418C12.3591 6.88608 12.3591 7.06329 12.3329 7.21519C12.3067 7.46835 12.2804 7.74683 12.2279 8C11.6506 8.22785 11.0733 8.37975 10.4435 8.4557C10.3123 8.48101 10.1811 8.48101 10.0237 8.50633C9.99743 8.50633 9.94494 8.48101 9.9187 8.4557C9.7875 8.3038 9.63005 8.20253 9.42012 8.22785H8.79033C8.44919 8.22785 8.21302 8.4557 8.18678 8.75949C8.16054 9.08861 8.37047 9.34177 8.7116 9.3924C8.97402 9.41772 9.26267 9.41772 9.52508 9.3924C9.70877 9.3924 9.83998 9.26582 9.94494 9.11392C9.97118 9.08861 9.99743 9.03797 10.0499 9.03797C10.7322 8.98734 11.4145 8.86076 12.0705 8.63291C11.9918 8.91139 11.8868 9.18987 11.7556 9.49367C11.7293 9.51899 11.7293 9.56962 11.7031 9.59494C11.4932 10.0506 11.1783 10.4304 10.8371 10.7595C10.4698 11.1139 9.99743 11.2911 9.52508 11.2658C9.05274 11.2911 8.5804 11.1139 8.21302 10.7595L8.16054 10.7089C7.8194 10.3797 7.53075 10.0253 7.34706 9.59494C6.9272 8.70886 6.69103 7.77215 6.69103 6.78481V6.37975C6.74351 5.89873 6.87472 5.46835 7.13713 5.08861C7.3733 4.73418 7.74068 4.43038 8.21302 4.25316C8.63288 4.10127 9.07898 4.02532 9.55132 4C9.99743 4 10.4435 4.07595 10.8896 4.25316C11.8343 4.63291 12.3329 5.44304 12.4116 6.37975C12.3591 6.4557 12.3591 6.58228 12.3591 6.73418Z" fill="white"/>
<path id="Vector_2" d="M13.9239 5.92858C13.8986 5.76727 13.8732 5.5522 13.7718 5.44466C13.7211 5.39089 13.493 5.33712 13.493 5.33712L13.3155 4.8263C12.8845 3.67025 12.1493 2.86371 11.1352 2.3529C10.6028 2.11093 10.0704 1.97651 9.53803 2.00339H9.43662C8.90423 2.00339 8.37183 2.11093 7.83944 2.3529C6.8 2.83682 6.09014 3.67025 5.65915 4.8263L5.48169 5.33712C5.48169 5.364 5.22817 5.39089 5.20282 5.44466C5.10141 5.57908 5.10141 5.79416 5.0507 5.92858C5 6.14366 5 6.38563 5 6.60071C5.02535 6.86955 5.07606 7.16529 5.15211 7.43414C5.22817 7.62233 5.32958 8.0256 5.5831 7.99872C5.70986 7.97183 5.98873 7.94495 6.14084 7.94495H6.2169C6.29296 7.94495 6.36901 7.8643 6.36901 7.75676C6.34366 7.56856 6.34366 7.40725 6.31831 7.21906C6.26761 6.81578 6.24225 6.4394 6.19155 6.03612C6.1662 5.82104 6.09014 5.57908 6.1662 5.33712C6.64789 3.67025 8.0169 2.62174 9.48732 2.7024C10.9577 2.62174 12.3268 3.67025 12.8338 5.31023C12.9099 5.52531 12.8338 5.76727 12.8085 6.00924C12.7577 6.41251 12.7324 6.7889 12.6817 7.19217C12.6563 7.38037 12.6563 7.54168 12.631 7.72987C12.631 7.81053 12.6817 7.91807 12.7831 7.91807H12.8592C12.9859 7.94495 13.2648 7.97183 13.4169 7.97183C13.6704 7.99872 13.7718 7.62233 13.8479 7.40725C13.9239 7.1384 13.9746 6.86955 14 6.57382C13.9746 6.35874 13.9746 6.14366 13.9239 5.92858Z" fill="white"/>
</g>
</svg>
