<svg width="20" height="20" viewBox="0 0 20 20" fill="none" xmlns="http://www.w3.org/2000/svg">
<g id="download (1) 1" clip-path="url(#clip0_317_1570)">
<path id="Vector" d="M19.4444 10.409C19.4433 10.4112 19.4424 10.413 19.4416 10.4145L19.3763 10.4798V10.5141C19.3656 10.532 19.3559 10.5526 19.3486 10.5758C19.3397 10.589 19.3274 10.6052 19.3115 10.6238C19.2877 10.6515 19.2633 10.6762 19.2426 10.6968L15.4108 14.4037L15.4054 14.4089L15.4003 14.4144C15.0452 14.8018 14.4183 14.8134 14.0114 14.4066C13.8084 14.2035 13.7096 13.9338 13.7096 13.7083C13.7096 13.4828 13.8084 13.2131 14.0114 13.0101L15.6781 11.3434L16.1049 10.9167H15.5013H5.54297C4.97271 10.9167 4.54297 10.4869 4.54297 9.91667C4.54297 9.3464 4.97271 8.91667 5.54297 8.91667H15.543H16.1465L15.7197 8.48989L14.0531 6.82322L14.0532 6.82306L14.0452 6.81571C13.6578 6.46056 13.6462 5.83361 14.0531 5.42678L14.0532 5.42694L14.0606 5.41893C14.4157 5.03149 15.0427 5.01994 15.4495 5.42678L19.2412 9.21844C19.3073 9.28453 19.3302 9.30877 19.3472 9.33651C19.3547 9.36152 19.365 9.38354 19.3763 9.40258V9.43689L19.4495 9.51011C19.4567 9.51731 19.4624 9.52303 19.4674 9.52809C19.4717 9.54787 19.4773 9.56455 19.4821 9.57737C19.4899 9.59834 19.4993 9.61751 19.5045 9.62783C19.5088 9.65888 19.517 9.6844 19.5237 9.70236C19.5319 9.72412 19.5417 9.74393 19.5467 9.75395L19.5504 9.76897C19.5821 9.89582 19.5821 10.0208 19.5504 10.1477L19.5467 10.1627C19.5417 10.1727 19.5319 10.1925 19.5237 10.2143C19.517 10.2323 19.5088 10.2578 19.5045 10.2888C19.4993 10.2992 19.4899 10.3183 19.4821 10.3393C19.4811 10.3419 19.4801 10.3446 19.4791 10.3475C19.4626 10.3723 19.4521 10.3934 19.4459 10.4059C19.4454 10.407 19.4448 10.4081 19.4444 10.409Z" fill="white" stroke="#212121" stroke-width="0.5"/>
<path id="Vector_2" d="M11.082 12.5007V12.2507H10.832H5.54036C4.30344 12.2507 3.29036 11.2376 3.29036 10.0007C3.29036 8.76372 4.30344 7.75065 5.54036 7.75065H10.832H11.082V7.50065V2.41732C11.082 1.07091 9.9701 -0.0410156 8.6237 -0.0410156H2.41536C1.06896 -0.0410156 -0.0429688 1.07091 -0.0429688 2.41732V17.584C-0.0429688 18.9304 1.06896 20.0423 2.41536 20.0423H8.6237C9.9701 20.0423 11.082 18.9304 11.082 17.584V12.5007Z" fill="white" stroke="white" stroke-width="0.5"/>
</g>
<defs>
<clipPath id="clip0_317_1570">
<rect width="20" height="20" fill="white"/>
</clipPath>
</defs>
</svg>
