<svg width="32" height="32" viewBox="0 0 32 32" fill="none" xmlns="http://www.w3.org/2000/svg">
<path fillRule="evenodd" clipRule="evenodd" d="M2.28869 0C1.03548 0 0.0032004 1.03228 0.0032004 2.2855L0.000153125 22.0962C0.000153125 23.1132 1.52533 23.1132 1.52533 22.0962L1.52686 2.2855C1.52686 1.85049 1.85368 1.52366 2.28869 1.52366H23.6199C24.0549 1.52366 24.3817 1.85049 24.3817 2.2855V15.9985C24.3665 17.0285 25.9206 17.0285 25.9054 15.9985V2.2855C25.9054 1.03228 24.8731 0 23.6199 0H2.28869ZM6.85966 6.09466C6.65761 6.09466 6.46383 6.17492 6.32096 6.31779C6.17809 6.46066 6.09783 6.65444 6.09783 6.85649C6.09783 7.05854 6.17809 7.25231 6.32096 7.39519C6.46383 7.53806 6.65761 7.61832 6.85966 7.61832C7.06171 7.61832 7.25548 7.53806 7.39835 7.39519C7.54122 7.25231 7.62149 7.05854 7.62149 6.85649C7.62149 6.65444 7.54122 6.46066 7.39835 6.31779C7.25548 6.17492 7.06171 6.09466 6.85966 6.09466ZM9.83079 6.09618C8.83813 6.16475 8.90898 7.64575 9.90393 7.61985H19.0489C20.0431 7.59851 20.0431 6.11751 19.0489 6.09618H9.90393C9.87956 6.09503 9.85515 6.09503 9.83079 6.09618ZM6.85966 10.6657C6.65761 10.6657 6.46383 10.7459 6.32096 10.8888C6.17809 11.0317 6.09783 11.2254 6.09783 11.4275C6.09783 11.6295 6.17809 11.8233 6.32096 11.9662C6.46383 12.1091 6.65761 12.1893 6.85966 12.1893C7.06171 12.1893 7.25548 12.1091 7.39835 11.9662C7.54122 11.8233 7.62149 11.6295 7.62149 11.4275C7.62149 11.2254 7.54122 11.0317 7.39835 10.8888C7.25548 10.7459 7.06171 10.6657 6.85966 10.6657ZM19.1327 10.6657C19.1045 10.6657 19.0763 10.6657 19.0489 10.6687H9.90393C9.87956 10.6675 9.85515 10.6675 9.83079 10.6687C8.89679 10.7845 8.96231 12.1604 9.90393 12.1863H19.0489C20.0949 12.2784 20.1825 10.6877 19.1327 10.6657ZM9.90393 15.2351C8.90974 15.2565 8.90974 16.7375 9.90393 16.7588H19.0489C20.0865 16.7816 20.0865 15.2123 19.0489 15.2351H9.90393ZM6.85966 15.2366C6.65761 15.2366 6.46383 15.3169 6.32096 15.4598C6.17809 15.6026 6.09783 15.7964 6.09783 15.9985C6.09783 16.2005 6.17809 16.3943 6.32096 16.5372C6.46383 16.68 6.65761 16.7603 6.85966 16.7603C7.06171 16.7603 7.25548 16.68 7.39835 16.5372C7.54122 16.3943 7.62149 16.2005 7.62149 15.9985C7.62149 15.7964 7.54122 15.6026 7.39835 15.4598C7.25548 15.3169 7.06171 15.2366 6.85966 15.2366ZM6.85966 19.8076C6.65761 19.8076 6.46383 19.8879 6.32096 20.0308C6.17809 20.1736 6.09783 20.3674 6.09783 20.5695C6.09783 20.7715 6.17809 20.9653 6.32096 21.1082C6.46383 21.251 6.65761 21.3313 6.85966 21.3313C7.06171 21.3313 7.25548 21.251 7.39835 21.1082C7.54122 20.9653 7.62149 20.7715 7.62149 20.5695C7.62149 20.3674 7.54122 20.1736 7.39835 20.0308C7.25548 19.8879 7.06171 19.8076 6.85966 19.8076ZM9.90393 19.8076C8.86631 19.7848 8.86631 21.3542 9.90393 21.3313H17.5237C18.5613 21.3542 18.5613 19.7848 17.5237 19.8076H9.90393ZM6.85966 24.3786C6.65761 24.3786 6.46383 24.4589 6.32096 24.6018C6.17809 24.7446 6.09783 24.9384 6.09783 25.1405C6.09783 25.3425 6.17809 25.5363 6.32096 25.6792C6.46383 25.822 6.65761 25.9023 6.85966 25.9023C7.06171 25.9023 7.25548 25.822 7.39835 25.6792C7.54122 25.5363 7.62149 25.3425 7.62149 25.1405C7.62149 24.9384 7.54122 24.7446 7.39835 24.6018C7.25548 24.4589 7.06171 24.3786 6.85966 24.3786ZM9.83079 24.3786C8.81451 24.4274 8.88688 25.9526 9.90393 25.9038H16.0001C17.0171 25.9038 17.0171 24.3786 16.0001 24.3786H9.90393C9.87956 24.3775 9.85515 24.3775 9.83079 24.3786ZM0.754363 25.1267C0.653666 25.1277 0.554164 25.1487 0.461611 25.1884C0.369058 25.228 0.285291 25.2857 0.215155 25.3579C0.145019 25.4302 0.0899047 25.5157 0.0530005 25.6094C0.0160963 25.7031 -0.00186575 25.8031 0.000153125 25.9038L0.0032004 29.7115C0.0032004 30.9647 1.03548 31.997 2.28869 31.997H17.5253C18.5553 32.0122 18.5553 30.4581 17.5253 30.4733H2.28869C1.85368 30.4733 1.52686 30.1465 1.52686 29.7115L1.52533 25.9038C1.52738 25.8017 1.50889 25.7003 1.47095 25.6055C1.433 25.5107 1.37639 25.4244 1.30447 25.352C1.23255 25.2795 1.14679 25.2222 1.05229 25.1835C0.957785 25.1448 0.85647 25.1255 0.754363 25.1267ZM25.1451 18.2824C21.3672 18.2824 18.2901 21.361 18.2901 25.1389C18.2901 28.9169 21.3679 32 25.1451 32C28.923 32 32 28.9169 32 25.1389C32 21.361 28.9222 18.2824 25.1451 18.2824ZM25.1451 19.8076C25.8456 19.806 26.5396 19.9428 27.1872 20.2102C27.8347 20.4775 28.4231 20.8702 28.9184 21.3656C29.4138 21.8609 29.8064 22.4493 30.0738 23.0968C30.3412 23.7444 30.478 24.4384 30.4763 25.1389C30.478 25.8397 30.3414 26.534 30.0741 27.1818C29.8068 27.8297 29.4143 28.4184 28.9189 28.9142C28.4236 29.4099 27.8352 29.803 27.1876 30.0708C26.54 30.3386 25.8459 30.4759 25.1451 30.4748C24.4443 30.4759 23.7501 30.3386 23.1025 30.0708C22.4549 29.803 21.8665 29.4099 21.3712 28.9142C20.8759 28.4184 20.4833 27.8297 20.216 27.1818C19.9488 26.534 19.8121 25.8397 19.8138 25.1389C19.8122 24.4384 19.949 23.7444 20.2163 23.0968C20.4837 22.4493 20.8763 21.8609 21.3717 21.3656C21.8671 20.8702 22.4554 20.4775 23.103 20.2102C23.7505 19.9428 24.4445 19.806 25.1451 19.8076ZM27.5509 22.7597C27.3536 22.7662 27.1665 22.8489 27.0291 22.9906L24.3352 25.6836L23.2611 24.6049C23.1904 24.5331 23.1063 24.4759 23.0135 24.4368C22.9206 24.3976 22.821 24.3772 22.7203 24.3768C22.6195 24.3763 22.5197 24.3958 22.4265 24.4341C22.3334 24.4724 22.2487 24.5288 22.1774 24.6C22.1061 24.6712 22.0496 24.7557 22.0112 24.8489C21.9728 24.942 21.9531 25.0418 21.9534 25.1425C21.9538 25.2433 21.974 25.3429 22.013 25.4358C22.0521 25.5287 22.1091 25.6129 22.1808 25.6836L23.7959 27.298C23.8666 27.3688 23.9506 27.425 24.0431 27.4633C24.1356 27.5017 24.2347 27.5214 24.3349 27.5214C24.435 27.5214 24.5341 27.5017 24.6266 27.4633C24.7191 27.425 24.8031 27.3688 24.8739 27.298L28.1093 24.0693C28.2204 23.9622 28.2964 23.8238 28.3271 23.6725C28.3578 23.5212 28.3418 23.3642 28.2812 23.2222C28.2207 23.0802 28.1184 22.9599 27.988 22.8773C27.8576 22.7948 27.7052 22.7538 27.5509 22.7597Z" fill="white"/>
</svg>
