<svg width="26" height="26" viewBox="0 0 26 26" fill="none" xmlns="http://www.w3.org/2000/svg">
<path d="M19 2.5C19 2.10218 19.158 1.72064 19.4393 1.43934C19.7206 1.15804 20.1022 1 20.5 1H23.5C23.8978 1 24.2794 1.15804 24.5607 1.43934C24.842 1.72064 25 2.10218 25 2.5V8.5C25 8.89782 24.842 9.27935 24.5607 9.56066C24.2794 9.84196 23.8978 10 23.5 10H20.5C20.1022 10 19.7206 9.84196 19.4393 9.56066C19.158 9.27935 19 8.89782 19 8.5V2.5ZM1 17.5C1 17.1022 1.15804 16.7206 1.43934 16.4393C1.72064 16.158 2.10218 16 2.5 16H5.5C5.89783 16 6.27936 16.158 6.56066 16.4393C6.84196 16.7206 7 17.1022 7 17.5V23.5C7 23.8978 6.84196 24.2794 6.56066 24.5607C6.27936 24.842 5.89783 25 5.5 25H2.5C2.10218 25 1.72064 24.842 1.43934 24.5607C1.15804 24.2794 1 23.8978 1 23.5V17.5ZM1 2.5C1 2.10218 1.15804 1.72064 1.43934 1.43934C1.72064 1.15804 2.10218 1 2.5 1H11.5C11.8978 1 12.2794 1.15804 12.5607 1.43934C12.842 1.72064 13 2.10218 13 2.5V8.5C13 8.89782 12.842 9.27935 12.5607 9.56066C12.2794 9.84196 11.8978 10 11.5 10H2.5C2.10218 10 1.72064 9.84196 1.43934 9.56066C1.15804 9.27935 1 8.89782 1 8.5V2.5ZM13 17.5C13 17.1022 13.158 16.7206 13.4393 16.4393C13.7206 16.158 14.1022 16 14.5 16H23.5C23.8978 16 24.2794 16.158 24.5607 16.4393C24.842 16.7206 25 17.1022 25 17.5V23.5C25 23.8978 24.842 24.2794 24.5607 24.5607C24.2794 24.842 23.8978 25 23.5 25H14.5C14.1022 25 13.7206 24.842 13.4393 24.5607C13.158 24.2794 13 23.8978 13 23.5V17.5Z" stroke="white" strokeWidth="1.69938" strokeLinecap="round" strokeLinejoin="round"/>
</svg>
