<svg width="64" height="64" viewBox="0 0 64 64" fill="none" xmlns="http://www.w3.org/2000/svg">
<path d="M32.01 35.1501C35.75 35.1501 39.43 29.0701 39.43 22.8801C39.43 16.4201 35.39 15.0601 32.01 15.0601C28.61 15.0601 24.59 16.4201 24.59 22.8801C24.59 29.0701 28.26 35.1501 32.01 35.1501ZM44.45 39.7601C42.89 39.2801 41.06 38.5001 39.04 37.4401C38.08 36.9201 37.06 36.3501 36.03 35.7301C34.83 36.6601 33.47 37.2101 32.01 37.2101C30.55 37.2101 29.19 36.6601 27.98 35.7301C27.18 36.2201 26.14 36.8301 24.96 37.4401C24.41 37.7301 23.88 37.9901 23.38 38.2301C21.97 38.9001 20.7 39.4101 19.56 39.7601C15.42 41.0501 14.37 46.5901 14.12 48.9301H49.89C49.63 46.6001 48.6 41.0601 44.45 39.7601ZM50.91 34.2201C51.67 34.2201 52.41 33.8701 53.09 33.2701C53.12 33.2501 53.14 33.2201 53.17 33.2001C54.88 31.6301 56.19 28.4901 56.19 25.3001C56.19 20.6801 53.31 19.7101 50.9 19.7101C48.48 19.7101 45.6 20.6801 45.6 25.3001C45.6 28.5001 46.93 31.6601 48.65 33.2201C49.37 33.8401 50.14 34.2201 50.91 34.2201ZM60.16 38.1801C59 37.8301 57.67 37.2601 56.06 36.4301C55.24 36.0001 54.51 35.5701 53.94 35.2301C53.03 35.8901 52 36.2901 50.92 36.2901C49.82 36.2901 48.8 35.9001 47.89 35.2301C47.18 35.6601 46.47 36.0701 45.77 36.4301C45.09 36.7901 44.44 37.1001 43.84 37.3601C44.27 37.5301 44.68 37.6601 45.07 37.7801C48.43 38.8301 50.17 41.7901 51.07 44.5301H64C63.77 42.7001 62.95 39.0601 60.16 38.1801ZM10.91 33.2601C11.59 33.8601 12.34 34.2101 13.09 34.2101C13.86 34.2101 14.62 33.8501 15.32 33.2301C15.34 33.2101 15.35 33.2001 15.36 33.1901C17.08 31.6201 18.39 28.4801 18.39 25.2901C18.39 20.6701 15.51 19.7001 13.09 19.7001C10.68 19.7001 7.8 20.6701 7.8 25.2901C7.8 28.4701 9.1 31.6101 10.81 33.1801C10.85 33.2101 10.88 33.2301 10.91 33.2601ZM18.95 37.7901C19.34 37.6801 19.76 37.5301 20.18 37.3701C19.58 37.1001 18.94 36.7901 18.24 36.4401C17.42 36.0201 16.7 35.5901 16.12 35.2401C15.21 35.9001 14.19 36.3001 13.1 36.3001C12.01 36.3001 10.99 35.9101 10.08 35.2401C9.54 35.5701 8.81 36.0001 7.95 36.4401C6.37 37.2701 5.02 37.8401 3.87 38.1901C1.06 39.0601 0.24 42.7001 0 44.5401H12.94C13.84 41.7901 15.58 38.8301 18.95 37.7901Z" fill="black"/>
</svg>
