<svg width="32" height="32" viewBox="0 0 32 32" fill="none" xmlns="http://www.w3.org/2000/svg">
<path d="M5.293 15.2929L10.293 10.2929C10.4816 10.1108 10.7342 10.01 10.9964 10.0122C11.2586 10.0145 11.5094 10.1197 11.6948 10.3051C11.8802 10.4905 11.9854 10.7413 11.9877 11.0035C11.99 11.2657 11.8892 11.5183 11.707 11.7069L8.414 14.9999H20C20.2652 14.9999 20.5196 15.1053 20.7071 15.2928C20.8946 15.4803 21 15.7347 21 15.9999C21 16.2651 20.8946 16.5195 20.7071 16.707C20.5196 16.8946 20.2652 16.9999 20 16.9999H8.414L11.707 20.2929C11.8025 20.3852 11.8787 20.4955 11.9311 20.6175C11.9835 20.7395 12.0111 20.8707 12.0123 21.0035C12.0134 21.1363 11.9881 21.268 11.9378 21.3909C11.8875 21.5138 11.8133 21.6254 11.7194 21.7193C11.6255 21.8132 11.5138 21.8875 11.391 21.9377C11.2681 21.988 11.1364 22.0133 11.0036 22.0122C10.8708 22.011 10.7396 21.9834 10.6176 21.931C10.4956 21.8786 10.3852 21.8024 10.293 21.7069L5.293 16.7069C5.10553 16.5194 5.00021 16.2651 5.00021 15.9999C5.00021 15.7348 5.10553 15.4804 5.293 15.2929Z" fill="black"/>
<path d="M18.6667 25H25V7H18.6667C18.2246 7 17.8007 6.89464 17.4882 6.70711C17.1756 6.51957 17 6.26522 17 6C17 5.73478 17.1756 5.48043 17.4882 5.29289C17.8007 5.10536 18.2246 5 18.6667 5H25.3333C25.7754 5 26.1993 5.10536 26.5118 5.29289C26.8244 5.48043 27 5.73478 27 6V26C27 26.2652 26.8244 26.5196 26.5118 26.7071C26.1993 26.8946 25.7754 27 25.3333 27H18.6667C18.2246 27 17.8007 26.8946 17.4882 26.7071C17.1756 26.5196 17 26.2652 17 26C17 25.7348 17.1756 25.4804 17.4882 25.2929C17.8007 25.1054 18.2246 25 18.6667 25Z" fill="black"/>
</svg>
