<svg width="30" height="31" viewBox="0 0 30 31" fill="none" xmlns="http://www.w3.org/2000/svg">
<path d="M21.6513 7.688V2.86626H11.6202V0H10.0343V2.86626H0V31H21.6516V29.0073L30 25.1807L21.6513 7.688ZM20.0654 29.4457H1.58561V4.4206H10.0339V7.21277C9.67135 7.38818 9.37997 7.67866 9.20719 8.03697C9.0344 8.39528 8.99038 8.80033 9.08227 9.18627C9.17416 9.57221 9.39657 9.91633 9.71333 10.1627C10.0301 10.409 10.4225 10.5431 10.8269 10.5431C11.2313 10.5431 11.6237 10.409 11.9405 10.1627C12.2573 9.91633 12.4797 9.57221 12.5716 9.18627C12.6634 8.80033 12.6194 8.39528 12.4466 8.03697C12.2738 7.67866 11.9825 7.38818 11.6199 7.21277V4.4206H20.0651L20.0654 29.4457ZM21.6513 11.3593L27.8903 24.4311L21.6513 27.2912V11.3593Z" fill="white"/>
</svg>
