<svg width="38" height="38" viewBox="0 0 38 38" fill="none" xmlns="http://www.w3.org/2000/svg">
<path d="M2.375 25.4375H16.625C16.6499 25.4375 16.6737 25.4474 16.6913 25.465C16.7089 25.4825 16.7188 25.5064 16.7188 25.5312V36.2188C16.7188 36.2436 16.7089 36.2675 16.6913 36.285C16.6737 36.3026 16.6499 36.3125 16.625 36.3125H2.375C2.35013 36.3125 2.32629 36.3026 2.30871 36.285C2.29113 36.2675 2.28125 36.2436 2.28125 36.2188V25.5312C2.28125 25.5064 2.29113 25.4825 2.30871 25.465C2.32629 25.4474 2.35013 25.4375 2.375 25.4375ZM26.125 20.875H11.875C11.8501 20.875 11.8263 20.8651 11.8087 20.8475C11.7911 20.83 11.7812 20.8061 11.7812 20.7812V10.0938C11.7812 10.0689 11.7911 10.045 11.8087 10.0275C11.8263 10.0099 11.8501 10 11.875 10H26.125C26.1499 10 26.1737 10.0099 26.1913 10.0275C26.2089 10.045 26.2188 10.0689 26.2188 10.0938V20.7812C26.2188 20.8061 26.2089 20.83 26.1913 20.8475C26.1737 20.8651 26.1499 20.875 26.125 20.875ZM21.375 25.4375H35.625C35.6499 25.4375 35.6737 25.4474 35.6913 25.465C35.7089 25.4825 35.7188 25.5064 35.7188 25.5312V36.2188C35.7188 36.2436 35.7089 36.2675 35.6913 36.285C35.6737 36.3026 35.6499 36.3125 35.625 36.3125H21.375C21.3501 36.3125 21.3263 36.3026 21.3087 36.285C21.2911 36.2675 21.2812 36.2436 21.2812 36.2188V25.5312C21.2812 25.5064 21.2911 25.4825 21.3087 25.465C21.3263 25.4474 21.3501 25.4375 21.375 25.4375Z" stroke="black"/>
<path d="M25.8987 5.22766L25.8989 5.22761C25.9105 5.2235 25.9212 5.21715 25.9303 5.20891C25.9395 5.20066 25.9469 5.1907 25.9522 5.17958C25.9575 5.16846 25.9606 5.15641 25.9612 5.14411C25.9619 5.13182 25.9601 5.11951 25.956 5.10789L25.9559 5.10761L24.7672 1.74946L25.8987 5.22766ZM25.8987 5.22766L11.3478 10.38C11.3478 10.38 11.3477 10.38 11.3477 10.38C11.324 10.3883 11.298 10.3869 11.2754 10.3761C11.2528 10.3654 11.2354 10.3461 11.2269 10.3226M25.8987 5.22766L11.2269 10.3226M11.2269 10.3226C11.2269 10.3225 11.2269 10.3224 11.2268 10.3223M11.2269 10.3226L11.2268 10.3223M11.2268 10.3223L10.0386 6.96693C10.0385 6.96673 10.0384 6.96653 10.0384 6.96633C10.0302 6.94242 10.0317 6.91624 10.0426 6.89342C10.0535 6.8706 10.0729 6.85295 10.0966 6.84425C10.0968 6.84418 10.097 6.8441 10.0972 6.84403L24.6449 1.69306C24.6451 1.69298 24.6454 1.6929 24.6456 1.69282C24.6701 1.68446 24.697 1.68599 24.7204 1.6971L11.2268 10.3223ZM1.78125 21.8746H17.2188C17.2436 21.8746 17.2675 21.8845 17.285 21.902C17.3026 21.9196 17.3125 21.9435 17.3125 21.9683V25.5308C17.3125 25.5557 17.3026 25.5795 17.285 25.5971C17.2675 25.6147 17.2436 25.6246 17.2188 25.6246H1.78125C1.75638 25.6246 1.73254 25.6147 1.71496 25.5971C1.69738 25.5795 1.6875 25.5557 1.6875 25.5308V21.9683C1.6875 21.9435 1.69738 21.9196 1.71496 21.902C1.73254 21.8845 1.75638 21.8746 1.78125 21.8746ZM20.7812 21.8746H36.2188C36.2436 21.8746 36.2675 21.8845 36.285 21.902C36.3026 21.9196 36.3125 21.9435 36.3125 21.9683V25.5308C36.3125 25.5557 36.3026 25.5795 36.285 25.5971C36.2675 25.6147 36.2436 25.6246 36.2188 25.6246H20.7812C20.7564 25.6246 20.7325 25.6147 20.715 25.5971C20.6974 25.5795 20.6875 25.5557 20.6875 25.5308V21.9683C20.6875 21.9435 20.6974 21.9196 20.715 21.902C20.7325 21.8845 20.7564 21.8746 20.7812 21.8746Z" stroke="black"/>
<path d="M11.2931 30.375H7.70754C7.37085 30.3745 7.04807 30.2406 6.80999 30.0025C6.57198 29.7645 6.43804 29.4419 6.4375 29.1053C6.43768 28.378 7.01193 27.8125 7.70687 27.8125H11.2925C11.6292 27.813 11.9519 27.9469 12.19 28.185C12.428 28.423 12.562 28.7456 12.5625 29.0822C12.5623 29.8095 11.9881 30.375 11.2931 30.375ZM7.70687 28C7.41994 28 7.14476 28.114 6.94187 28.3169C6.73898 28.5198 6.625 28.7949 6.625 29.0819C6.625 29.6898 7.0965 30.1875 7.70687 30.1875H11.2931C11.5801 30.1875 11.8552 30.0735 12.0581 29.8706C12.261 29.6677 12.375 29.3926 12.375 29.1056C12.375 28.4977 11.9035 28 11.2931 28H7.70687ZM30.2931 30.375H26.7075C26.3708 30.3745 26.0481 30.2406 25.81 30.0025C25.5719 29.7645 25.438 29.4417 25.4375 29.105C25.4378 28.3778 26.012 27.8125 26.7069 27.8125H30.2925C30.6292 27.813 30.9519 27.9469 31.19 28.185C31.4281 28.423 31.562 28.7458 31.5625 29.0825C31.5622 29.8097 30.988 30.375 30.2931 30.375ZM26.7069 28C26.4199 28 26.1448 28.114 25.9419 28.3169C25.739 28.5198 25.625 28.7949 25.625 29.0819C25.625 29.6898 26.0965 30.1875 26.7069 30.1875H30.2931C30.5801 30.1875 30.8552 30.0735 31.0581 29.8706C31.261 29.6677 31.375 29.3926 31.375 29.1056C31.375 28.4977 30.9035 28 30.2931 28H26.7069ZM20.7931 14.9375H17.2072C16.8706 14.937 16.548 14.803 16.31 14.565C16.0719 14.327 15.938 14.0042 15.9375 13.6675C15.9378 12.9403 16.512 12.375 17.2069 12.375H20.7928C21.1293 12.3755 21.452 12.5095 21.69 12.7475C21.9281 12.9855 22.062 13.3083 22.0625 13.645C22.0622 14.3722 21.488 14.9375 20.7931 14.9375ZM17.2069 12.5625C16.9199 12.5625 16.6448 12.6765 16.4419 12.8794C16.239 13.0823 16.125 13.3574 16.125 13.6444C16.125 14.2523 16.5965 14.75 17.2069 14.75H20.7931C20.9352 14.75 21.0759 14.722 21.2071 14.6676C21.3384 14.6133 21.4577 14.5336 21.5581 14.4331C21.6586 14.3327 21.7383 14.2134 21.7926 14.0821C21.847 13.9509 21.875 13.8102 21.875 13.6681C21.875 13.0602 21.4035 12.5625 20.7931 12.5625H17.2069Z" fill="black" stroke="black"/>
</svg>
