<svg width="31" height="30" viewBox="0 0 31 30" fill="none" xmlns="http://www.w3.org/2000/svg">
<path d="M15.5 0C11.3906 0.00444664 7.45074 1.58623 4.54492 4.39831C1.6391 7.21039 0.00459486 11.0231 0 15C0.00688535 18.9762 1.64213 22.7876 4.54745 25.5992C7.45277 28.4108 11.3913 29.9933 15.5 30C19.6109 30 23.5533 28.4196 26.4602 25.6066C29.367 22.7936 31 18.9782 31 15C31 11.0218 29.367 7.20644 26.4602 4.3934C23.5533 1.58035 19.6109 0 15.5 0ZM24.9277 23.6556C24.0572 21.9564 22.7133 20.5265 21.0477 19.5271C19.3821 18.5277 17.461 17.9987 15.5013 17.9997C13.5415 18.0007 11.621 18.5316 9.95646 19.5327C8.29194 20.5338 6.94962 21.9651 6.08096 23.6652C3.76329 21.339 2.47187 18.2314 2.48 15C2.48 11.6583 3.85175 8.45341 6.29347 6.09045C8.73519 3.7275 12.0469 2.4 15.5 2.4C18.9531 2.4 22.2648 3.7275 24.7065 6.09045C27.1483 8.45341 28.52 11.6583 28.52 15C28.5278 18.2269 27.2397 21.3304 24.9277 23.6556ZM15.5 6C14.3964 6 13.3175 6.3167 12.3999 6.91006C11.4823 7.50342 10.7671 8.34679 10.3448 9.33351C9.92241 10.3202 9.81191 11.406 10.0272 12.4535C10.2425 13.501 10.774 14.4632 11.5543 15.2184C12.3347 15.9736 13.329 16.4879 14.4114 16.6962C15.4938 16.9046 16.6158 16.7977 17.6354 16.389C18.655 15.9802 19.5265 15.2881 20.1396 14.4001C20.7527 13.5121 21.08 12.468 21.08 11.4C21.08 10.6909 20.9357 9.98867 20.6552 9.33351C20.3748 8.67835 19.9638 8.08306 19.4457 7.58162C18.9275 7.08019 18.3124 6.68243 17.6354 6.41105C16.9584 6.13968 16.2328 6 15.5 6Z" fill="white"/>
</svg>
