<svg width="128" height="128" viewBox="0 0 128 128" fill="none" xmlns="http://www.w3.org/2000/svg">
<path d="M125.001 93.4C124.601 91.1 123.101 89 121.001 88C114.001 84.5 98.7008 79.4 98.7008 79.4V74.3L99.1008 74C102.001 71.8 104.101 68.4 104.701 64.7L104.801 64.2H105.201C107.601 64.2 109.601 62.7 110.401 60.7C110.901 59.8 111.201 58.8 111.201 57.7C111.201 57 111.101 56.3 110.801 55.6C110.701 54.9 110.201 54.2 109.701 53.8L108.301 52.9L108.601 51.4C111.201 40.3 102.501 30.2 90.9008 30C90.6008 30 90.3008 30 90.1008 30C89.8008 30 89.5008 30 89.3008 30C77.6008 30.1 69.0008 40.2 71.5008 51.3L71.9008 52.8L70.5008 53.7C69.9008 54.1 69.5008 54.8 69.4008 55.5C69.1008 56.2 69.0008 56.9 69.0008 57.6C69.0008 58.7 69.3008 59.7 69.8008 60.6C70.6008 62.7 72.7008 64.1 75.0008 64.1H75.4008L75.5008 64.6C76.1008 68.3 78.1008 71.7 81.1008 73.9L81.5008 74.2V79.3C81.5008 79.3 66.2008 84.4 59.2008 87.9C57.1008 89 55.6008 91 55.2008 93.3C54.0008 100.3 53.8008 112.1 53.8008 112.1H126.501C126.401 112.2 126.201 100.4 125.001 93.4Z" fill="black"/>
<path d="M56.8992 83.5C60.8992 81.5 67.1992 79.1 72.1992 77.3C71.4992 75.9 70.2992 74.7 68.8992 74C61.8992 70.5 46.5992 65.4 46.5992 65.4V60.3L46.9992 60C49.8992 57.8 51.9992 54.4 52.5992 50.7L52.6992 50.2H53.0992C55.4992 50.2 57.4992 48.7 58.2992 46.7C58.7992 45.8 59.0992 44.8 59.0992 43.7C59.0992 43 58.9992 42.3 58.6992 41.6C58.5992 40.9 58.0992 40.2 57.5992 39.8L56.1992 38.9L56.4992 37.4C59.0992 26.3 50.3992 16.2 38.7992 16C38.4992 16 38.1992 16 37.9992 16C37.6992 16 37.3992 16 37.1992 16C25.5992 16.3 16.9992 26.3 19.4992 37.4L19.8992 38.9L18.4992 39.8C17.8992 40.2 17.4992 40.9 17.3992 41.6C17.0992 42.3 16.9992 43 16.9992 43.7C16.9992 44.8 17.2992 45.8 17.7992 46.7C18.5992 48.8 20.6992 50.2 22.9992 50.2H23.3992L23.4992 50.7C23.9992 54.4 25.9992 57.7 28.9992 60L29.3992 60.3V65.4C29.3992 65.4 14.0992 70.5 7.09922 74C4.99922 75.1 3.49922 77.1 3.09922 79.4C1.89922 86.4 1.69922 98.2 1.69922 98.2H49.4992C49.6992 96.2 49.8992 94.3 50.1992 92.6C50.8992 88.6 53.3992 85.3 56.8992 83.5Z" fill="black"/>
</svg>
