<svg width="24" height="28" viewBox="0 0 24 28" fill="none" xmlns="http://www.w3.org/2000/svg">
<path d="M20.4 14.56C22.3882 14.56 24 16.0643 24 17.92V19.04C24 23.456 19.5372 28 12 28C4.46282 28 0 23.456 0 19.04V17.92C0 16.0643 1.61177 14.56 3.6 14.56H20.4ZM20.4 16.8H3.6C2.93726 16.8 2.4 17.3014 2.4 17.92V19.04C2.4 22.2603 5.83718 25.76 12 25.76C18.1628 25.76 21.6 22.2603 21.6 19.04V17.92C21.6 17.3014 21.0627 16.8 20.4 16.8ZM12 0C15.6451 0 18.6 2.75793 18.6 6.16C18.6 9.56207 15.6451 12.32 12 12.32C8.35492 12.32 5.4 9.56207 5.4 6.16C5.4 2.75793 8.35492 0 12 0ZM12 2.24C9.6804 2.24 7.8 3.99504 7.8 6.16C7.8 8.32496 9.6804 10.08 12 10.08C14.3196 10.08 16.2 8.32496 16.2 6.16C16.2 3.99504 14.3196 2.24 12 2.24Z" fill="white"/>
</svg>
