<svg width="39" height="39" viewBox="0 0 39 39" fill="none" xmlns="http://www.w3.org/2000/svg">
<g id="Group 1000005780">
<rect id="Rectangle 102" width="39" height="39" rx="7" fill="white"/>
<g id="Group 1000005772">
<path id="Vector" fill-rule="evenodd" clip-rule="evenodd" d="M13.5176 27.2951C13.5176 26.5384 14.1291 25.9258 14.8845 25.9258C15.6309 25.9258 16.2425 26.5384 16.2425 27.2951C16.2425 28.0428 15.6309 28.6554 14.8845 28.6554C14.1291 28.6554 13.5176 28.0428 13.5176 27.2951ZM23.6347 27.2951C23.6347 26.5384 24.2462 25.9258 25.0016 25.9258C25.748 25.9258 26.3596 26.5384 26.3596 27.2951C26.3596 28.0428 25.748 28.6554 25.0016 28.6554C24.2462 28.6554 23.6347 28.0428 23.6347 27.2951Z" fill="#212121"/>
<path id="Vector_2" fill-rule="evenodd" clip-rule="evenodd" d="M26.3589 14.4677C26.9075 14.4677 27.2672 14.6569 27.6269 15.0713C27.9867 15.4857 28.0496 16.0802 27.9687 16.6199L27.1143 22.5295C26.9525 23.6655 25.9812 24.5024 24.8391 24.5024H15.0278C13.8317 24.5024 12.8425 23.5835 12.7435 22.3953L11.9162 12.575L10.5582 12.3408C10.1985 12.2777 9.94671 11.9264 10.0097 11.566C10.0726 11.1967 10.4234 10.9535 10.7921 11.0075L12.9369 11.3318C13.2426 11.3868 13.4675 11.6381 13.4944 11.9444L13.6653 13.9623C13.6923 14.2515 13.9261 14.4677 14.2139 14.4677H26.3589ZM20.9092 19.1513H23.4002C23.7779 19.1513 24.0747 18.845 24.0747 18.4756C24.0747 18.0973 23.7779 17.8 23.4002 17.8H20.9092C20.5315 17.8 20.2347 18.0973 20.2347 18.4756C20.2347 18.845 20.5315 19.1513 20.9092 19.1513Z" fill="#212121"/>
</g>
</g>
</svg>
