<svg width="39" height="39" viewBox="0 0 39 39" fill="none" xmlns="http://www.w3.org/2000/svg">
<g id="Group 1000005782">
<rect id="Rectangle 102" width="39" height="39" rx="7" fill="white"/>
<path id="Order History" d="M16.3152 22.3669H22.093C22.4805 21.6081 23.05 20.9572 23.7506 20.4724H16.3152C16.1896 20.4724 16.0691 20.4225 15.9803 20.3337C15.8915 20.2449 15.8416 20.1244 15.8416 19.9988C15.8416 19.8732 15.8915 19.7527 15.9803 19.6639C16.0691 19.5751 16.1896 19.5252 16.3152 19.5252H23.8927C24.0183 19.5252 24.1388 19.5751 24.2276 19.6639C24.3164 19.7527 24.3663 19.8732 24.3663 19.9988C24.3683 20.0338 24.3651 20.0689 24.3568 20.103C24.9209 19.8201 25.5299 19.6374 26.1565 19.5631C26.3478 19.5354 26.541 19.5227 26.7343 19.5252C26.8926 19.5249 27.0508 19.5344 27.2079 19.5536V13.3681C27.2079 12.74 26.9584 12.1377 26.5143 11.6936C26.0702 11.2495 25.4679 11 24.8399 11H15.368C14.74 11 14.1376 11.2495 13.6936 11.6936C13.2495 12.1377 13 12.74 13 13.3681V23.7878C13 24.4158 13.2495 25.0182 13.6936 25.4623C14.1376 25.9064 14.74 26.1559 15.368 26.1559H21.7236C21.6474 25.8796 21.5935 25.5977 21.5626 25.3128C21.5349 25.1215 21.5222 24.9283 21.5247 24.735C21.5231 24.2543 21.59 23.7759 21.7236 23.3141H16.3152C16.1896 23.3141 16.0691 23.2642 15.9803 23.1754C15.8915 23.0866 15.8416 22.9661 15.8416 22.8405C15.8416 22.7149 15.8915 22.5944 15.9803 22.5056C16.0691 22.4168 16.1896 22.3669 16.3152 22.3669ZM16.3152 13.8417H23.8927C24.0183 13.8417 24.1388 13.8916 24.2276 13.9804C24.3164 14.0693 24.3663 14.1897 24.3663 14.3153C24.3663 14.441 24.3164 14.5614 24.2276 14.6502C24.1388 14.7391 24.0183 14.789 23.8927 14.789H16.3152C16.1896 14.789 16.0691 14.7391 15.9803 14.6502C15.8915 14.5614 15.8416 14.441 15.8416 14.3153C15.8416 14.1897 15.8915 14.0693 15.9803 13.9804C16.0691 13.8916 16.1896 13.8417 16.3152 13.8417ZM16.3152 16.6835H23.8927C24.0183 16.6835 24.1388 16.7334 24.2276 16.8222C24.3164 16.911 24.3663 17.0315 24.3663 17.1571C24.3663 17.2827 24.3164 17.4032 24.2276 17.492C24.1388 17.5808 24.0183 17.6307 23.8927 17.6307H16.3152C16.1896 17.6307 16.0691 17.5808 15.9803 17.492C15.8915 17.4032 15.8416 17.2827 15.8416 17.1571C15.8416 17.0315 15.8915 16.911 15.9803 16.8222C16.0691 16.7334 16.1896 16.6835 16.3152 16.6835ZM27.2079 20.5008C26.8933 20.463 26.5753 20.463 26.2607 20.5008C25.2191 20.6173 24.2569 21.1135 23.558 21.8946C22.8591 22.6756 22.4724 23.6869 22.4719 24.735C22.4717 24.8933 22.4812 25.0515 22.5003 25.2086C22.5336 25.5322 22.6068 25.8503 22.7182 26.1559C22.9716 26.8741 23.4128 27.5112 23.9959 28.0011C24.579 28.491 25.2826 28.8157 26.0337 28.9415C26.7848 29.0672 27.5559 28.9895 28.2667 28.7163C28.9776 28.4431 29.6022 27.9844 30.0758 27.3879C30.5493 26.7915 30.8544 26.0791 30.9593 25.3247C31.0643 24.5704 30.9652 23.8018 30.6724 23.0987C30.3797 22.3957 29.9039 21.7839 29.2946 21.327C28.6853 20.8701 27.9648 20.5849 27.2079 20.5008ZM27.2079 24.735C27.2079 24.8606 27.158 24.9811 27.0692 25.0699C26.9804 25.1587 26.8599 25.2086 26.7343 25.2086H25.3609C25.2353 25.2086 25.1148 25.1587 25.026 25.0699C24.9372 24.9811 24.8873 24.8606 24.8873 24.735C24.8873 24.6094 24.9372 24.4889 25.026 24.4001C25.1148 24.3113 25.2353 24.2614 25.3609 24.2614H26.2607V22.8405C26.2607 22.7149 26.3106 22.5944 26.3994 22.5056C26.4882 22.4168 26.6087 22.3669 26.7343 22.3669C26.8599 22.3669 26.9804 22.4168 27.0692 22.5056C27.158 22.5944 27.2079 22.7149 27.2079 22.8405V24.735Z" fill="#212121"/>
</g>
</svg>
