<svg width="39" height="39" viewBox="0 0 39 39" fill="none" xmlns="http://www.w3.org/2000/svg">
<g id="Group 1000005785">
<rect id="Rectangle 102" width="39" height="39" rx="7" fill="white"/>
<g id="Group 1000005784">
<path id="Vector" d="M26.3554 19.6806C25.7109 18.9129 25.418 18.2476 25.418 17.1173V16.733C25.418 15.2601 25.0856 14.3111 24.3631 13.3621C23.2494 11.8883 21.3745 11 19.539 11H19.461C17.6642 11 15.848 11.8475 14.715 13.2615C13.9529 14.2295 13.582 15.2193 13.582 16.733V17.1173C13.582 18.2476 13.3084 18.9129 12.6446 19.6806C12.1561 20.2462 12 20.9731 12 21.7599C12 22.5476 12.2534 23.2936 12.7621 23.9C13.4259 24.6269 14.3634 25.0909 15.321 25.1716C16.7074 25.3329 18.0938 25.3937 19.5004 25.3937C20.9062 25.3937 22.2926 25.2921 23.6799 25.1716C24.6366 25.0909 25.5741 24.6269 26.2379 23.9C26.7457 23.2936 27 22.5476 27 21.7599C27 20.9731 26.8439 20.2462 26.3554 19.6806Z" fill="#212121"/>
<path id="Vector_2" d="M21.2729 26.5057C20.8317 26.4096 18.144 26.4096 17.7028 26.5057C17.3258 26.5945 16.918 26.8011 16.918 27.2543C16.9399 27.6866 17.1881 28.0683 17.5318 28.3103L17.531 28.3112C17.9756 28.6646 18.4974 28.8895 19.0437 28.9702C19.3348 29.011 19.6312 29.0092 19.9329 28.9702C20.4784 28.8895 21.0002 28.6646 21.4448 28.3112L21.4439 28.3103C21.7877 28.0683 22.0358 27.6866 22.0578 27.2543C22.0578 26.8011 21.6499 26.5945 21.2729 26.5057Z" fill="#212121"/>
</g>
</g>
</svg>
