<svg width="39" height="39" viewBox="0 0 39 39" fill="none" xmlns="http://www.w3.org/2000/svg">
<g id="Group 1000005776">
<rect id="Rectangle 102" width="39" height="39" rx="7" fill="white"/>
<path id="Vector" d="M17.9366 27.8957V25.1443C17.9366 24.4414 18.5065 23.8717 19.2098 23.8717H21.7822C22.1195 23.8717 22.4434 24.0058 22.6823 24.2443C22.9212 24.4828 23.0554 24.8068 23.0554 25.1443V27.8957C23.0536 28.1882 23.1681 28.469 23.3739 28.676C23.5806 28.883 23.8606 29 24.1532 29H25.9078C26.7274 29.0018 27.5138 28.6787 28.0936 28.1009C28.6743 27.5231 29 26.7383 29 25.9201V18.0801C29 17.4186 28.7065 16.7922 28.1992 16.3683L22.2304 11.6081C21.1925 10.7738 19.7046 10.8008 18.6971 11.672L12.8652 16.3683C12.3337 16.7796 12.0161 17.4087 12 18.0801V25.912C12 27.6176 13.3842 29 15.0922 29H16.8065C17.4141 29 17.9079 28.5104 17.9124 27.9038L17.9366 27.8957Z" fill="#212121"/>
</g>
</svg>
